<?xml version="1.0" encoding="UTF-8"?> <svg xmlns="http://www.w3.org/2000/svg" width="300" height="65" viewBox="0 0 300 65" fill="none"> <path d="M54.1937 7.58645C55.6569 6.14669 57.3911 4.87305 59.3421 3.76554C61.0221 2.82415 62.973 1.99352 65.3034 1.16289C67.6337 0.387629 70.2892 0 73.2698 0C77.0092 0 80.4776 0.664507 83.675 1.93814C86.8182 3.21178 89.5279 5.03918 91.7498 7.42033C93.9718 9.80147 95.7601 12.681 97.0066 16.1143C98.2531 19.5476 98.9034 23.4239 98.9034 27.6878V64.5679H85.7885V27.8539C85.7885 23.2024 84.3253 19.4368 81.453 16.5019C78.5808 13.567 74.9498 12.1272 70.6685 12.1272C65.6827 12.1272 61.6724 13.6778 58.6918 16.8342C55.7111 19.9352 54.1937 24.476 54.1937 30.4566V64.5679H41.0788V0.110751H54.1937V7.58645Z" fill="#060606"></path> <path d="M110.392 32.3393C110.392 27.9646 111.259 23.8115 112.993 19.9352C114.728 16.0589 117.112 12.6256 120.147 9.63534C123.182 6.64506 126.65 4.31929 130.606 2.60265C134.617 0.886008 138.79 0 143.288 0C147.732 0 151.959 0.886008 155.915 2.60265C159.871 4.31929 163.339 6.70044 166.374 9.63534C169.409 12.6256 171.793 16.0589 173.528 19.9352C175.262 23.8115 176.129 27.9646 176.129 32.3393C176.129 36.714 175.262 40.8671 173.528 44.7434C171.793 48.6197 169.409 52.053 166.374 55.0433C163.339 58.0336 159.871 60.3593 155.915 62.076C151.959 63.7926 147.786 64.6786 143.288 64.6786C138.844 64.6786 134.617 63.7926 130.661 62.076C126.704 60.3593 123.236 57.9782 120.201 55.0433C117.166 52.053 114.782 48.6197 113.048 44.7434C111.313 40.8671 110.392 36.7694 110.392 32.3393ZM162.96 32.3393C162.96 29.4598 162.418 26.8018 161.388 24.3652C160.359 21.9287 158.895 19.7691 157.053 17.9417C155.21 16.1143 153.097 14.6745 150.766 13.6224C148.382 12.5702 145.889 12.0165 143.288 12.0165C140.686 12.0165 138.139 12.5702 135.809 13.6224C133.424 14.6745 131.365 16.1143 129.522 17.9417C127.68 19.7691 126.217 21.8733 125.187 24.3652C124.103 26.8018 123.561 29.4598 123.561 32.3393C123.561 35.2188 124.103 37.8769 125.133 40.3134C126.162 42.7499 127.626 44.9095 129.468 46.7369C131.311 48.5643 133.424 50.0041 135.755 51.0562C138.139 52.1084 140.632 52.6621 143.233 52.6621C145.835 52.6621 148.382 52.1084 150.712 51.0562C153.097 50.0041 155.156 48.5643 156.999 46.7369C158.841 44.9095 160.304 42.8053 161.334 40.3134C162.418 37.8769 162.96 35.2188 162.96 32.3393Z" fill="#060606"></path> <path d="M203.226 64.5785L177.592 0.121407H191.412L209.783 47.0799L228.155 0.121407H241.974L216.341 64.5785H203.226Z" fill="#060606"></path> <path d="M285.925 64.5678V57.1475C284.462 58.5873 282.728 59.8609 280.777 60.9131C279.097 61.8544 277.146 62.6851 274.816 63.5157C272.485 64.291 269.83 64.734 266.849 64.734C263.544 64.734 260.509 64.2356 257.799 63.1834C255.089 62.1313 252.759 60.8023 250.754 59.141C248.803 57.4798 247.231 55.5416 246.147 53.382C245.064 51.2223 244.522 49.0073 244.522 46.7923C244.522 41.6424 246.202 37.4338 249.507 34.0559C252.813 30.678 257.311 28.5184 262.893 27.577L285.871 23.7561C285.871 20.4889 284.679 17.7202 282.24 15.5051C279.856 13.2901 276.658 12.1272 272.702 12.1272C269.884 12.1272 267.5 12.5702 265.495 13.5116C263.489 14.3976 261.755 15.3944 260.346 16.4465C258.775 17.6648 257.42 19.0492 256.282 20.5997L247.719 12.1272C249.453 9.91222 251.567 7.86332 254.005 6.09131C256.119 4.59617 258.666 3.1564 261.755 1.93814C264.953 0.609131 268.584 0 272.756 0C276.713 0 280.289 0.609131 283.541 1.82739C286.793 3.04565 289.556 4.76229 291.833 6.92194C294.109 9.08158 295.897 11.6289 297.144 14.5084C298.39 17.3879 299.04 20.4889 299.04 23.7561V64.6232H285.925V64.5678ZM268.855 52.6067C274.111 52.6067 278.284 51.1116 281.319 48.0659C284.408 45.0203 285.925 40.701 285.925 34.9973V33.7237L265.549 36.8801C263.273 37.3231 261.376 38.2091 259.913 39.6489C258.449 41.0886 257.691 42.8606 257.691 45.0757C257.691 47.0138 258.612 48.7304 260.509 50.281C262.405 51.8315 265.169 52.6067 268.855 52.6067Z" fill="#060606"></path> <path d="M0 32.4607C0 30.0242 0.379355 27.9199 1.13807 26.2033C1.89678 24.4866 2.81807 22.9915 3.95613 21.7732C5.04001 20.555 6.23226 19.5028 7.58711 18.6168C8.88775 17.7308 10.08 16.9002 11.2181 16.1249C12.3561 15.3497 13.2774 14.519 14.0361 13.6884C14.7949 12.8578 15.1742 11.861 15.1742 10.6981C15.1742 9.42449 14.7949 8.42773 14.0361 7.70785C13.2774 6.98797 12.1394 6.60034 10.6761 6.60034C9.70066 6.60034 8.88775 6.82184 8.29162 7.26484C7.58711 7.65247 7.09936 8.09548 6.66581 8.64923C6.23227 9.20299 5.85291 9.86749 5.63614 10.6427L0 7.98473C0.487743 6.54496 1.24645 5.21595 2.22194 4.05307C2.65549 3.55469 3.14323 3.11168 3.68517 2.6133C4.2271 2.11492 4.87742 1.7273 5.58194 1.33967C6.28646 0.952039 7.09936 0.675161 8.02065 0.453659C8.94195 0.232158 9.91743 0.121407 11.0555 0.121407C12.6813 0.121407 14.1987 0.398284 15.5536 0.896663C16.9084 1.39504 18.1007 2.1703 19.0762 3.05631C20.0516 3.99769 20.7562 5.04983 21.2981 6.26809C21.84 7.48635 22.111 8.81536 22.111 10.2551C22.111 11.6949 21.84 12.9685 21.3523 14.0207C20.9187 15.0728 20.2142 16.0695 19.4013 16.9002C18.5884 17.7308 17.6671 18.5614 16.6916 19.226C15.7161 19.9458 14.7407 20.6657 13.711 21.3302C12.6813 22.0501 11.76 22.77 10.8387 23.4899C9.91743 24.2651 9.15872 25.0958 8.56259 26.0371H22.111V32.5161H0V32.4607Z" fill="#060606"></path> </svg> 