<svg width="140" height="21" viewBox="0 0 140 21" fill="none" xmlns="http://www.w3.org/2000/svg">
<path d="M137.122 0.71582H140V20.5207H137.122V0.71582Z" fill="#4D4D4D"/>
<path d="M0 4.345V0.71582L12.8221 8.98696V12.2238L0 4.345Z" fill="#4D4D4D"/>
<path d="M0 16.9672V20.521L12.8221 12.4704V9.28027L0 16.9672Z" fill="#4D4D4D"/>
<path d="M18.8963 10.0945C19.5589 8.99108 20.3485 8.15967 21.2651 7.59935C22.1816 7.03999 23.0244 6.76031 23.7944 6.76031C24.8733 6.76031 25.8431 7.23758 26.7064 8.19117C27.5688 9.14476 28 10.5909 28 12.5296C28 14.0578 27.7135 15.4238 27.1395 16.6255C26.5655 17.8283 25.8011 18.7771 24.8463 19.4749C23.8915 20.1717 22.7089 20.521 21.2996 20.521C20.8983 20.521 20.2823 20.4771 19.4516 20.3903C19.3275 20.375 19.1436 20.3549 18.8963 20.3311H16.7477V1.25163H18.8963V10.0945ZM19.1025 12.6222V18.337C19.8847 18.5442 20.6052 18.6473 21.2623 18.6473C22.5708 18.6473 23.6712 18.1204 24.5663 17.0665C25.4595 16.0127 25.9065 14.5714 25.9065 12.7424C25.9065 11.4137 25.6629 10.4153 25.1748 9.74708C24.6876 9.0789 24.1341 8.74481 23.5144 8.74481C22.8415 8.74481 22.1004 9.09513 21.2912 9.79481C20.482 10.4945 19.7531 11.4366 19.1025 12.6222ZM36.1172 20.521C34.2925 20.521 32.8319 19.8624 31.7361 18.5432C30.6413 17.2259 30.0935 15.5631 30.0935 13.5567C30.0935 11.5502 30.6413 9.88931 31.7361 8.5749C32.8319 7.26144 34.2925 6.60376 36.1181 6.60376C37.9353 6.60376 39.3923 7.26144 40.488 8.5749C41.5828 9.88931 42.1307 11.5502 42.1307 13.5567C42.1307 15.5631 41.5828 17.2259 40.488 18.5432C39.3923 19.8614 37.9353 20.521 36.1181 20.521H36.1172ZM36.2488 18.6473C37.4061 18.6473 38.3273 18.1948 39.0115 17.2899C39.6956 16.385 40.0381 15.1403 40.0381 13.5567C40.0381 11.9807 39.6956 10.7408 39.0115 9.8349C38.3273 8.92999 37.4061 8.47753 36.2488 8.47753C35.0831 8.47753 34.1581 8.92999 33.474 9.8349C32.7908 10.7398 32.4483 11.9807 32.4483 13.5567C32.4483 15.1412 32.7908 16.385 33.4749 17.2889C34.1581 18.1948 35.0831 18.6473 36.2488 18.6473V18.6473ZM54.4301 19.6285C53.4175 20.059 52.6829 20.3158 52.2275 20.3979C51.791 20.4782 51.3485 20.5194 50.9049 20.521C50.0005 20.521 49.1736 20.3444 48.4232 19.9922C47.6737 19.6409 47.1072 19.1198 46.7245 18.4315C46.3419 17.7433 46.1505 16.679 46.1505 15.2395V9.95803H42.9156V8.13867H46.1505V2.85717H48.3075V8.13867H54.0708V9.95803H48.3075V15.2042C48.3075 16.2599 48.4316 17.0054 48.6789 17.4398C48.9263 17.8741 49.2567 18.1939 49.6701 18.3962C50.0836 18.5995 50.5727 18.7017 51.1364 18.7017C52.1808 18.7017 53.2784 18.3695 54.4301 17.7042V19.6285ZM56.5236 20.2528V6.97222H58.3697V10.0163C58.9503 8.72381 59.4925 7.83226 59.9937 7.34067C60.4968 6.85003 61.0045 6.60376 61.5179 6.60376C62.1292 6.60376 62.622 6.85576 62.9953 7.35881C63.3687 7.86185 63.5563 8.57776 63.5563 9.50463V10.2186C63.8055 9.41013 64.1051 8.75435 64.4569 8.25035C64.8079 7.74731 65.1719 7.34735 65.5489 7.04953C65.9269 6.75267 66.3609 6.60376 66.8519 6.60376C67.3951 6.60376 67.8599 6.84622 68.2453 7.32922C68.6299 7.81317 68.8221 8.77535 68.8221 10.2186V20.2528H66.976V11.1818C66.976 10.4372 66.9536 9.92749 66.9088 9.65449C66.8631 9.38053 66.7725 9.17244 66.6363 9.02926C66.5009 8.88608 66.3535 8.81544 66.1948 8.81544C65.8028 8.81544 65.3819 9.13044 64.932 9.76044C64.4831 10.3904 64.0248 11.4347 63.5563 12.8933V20.2528H61.7895V11.1942C61.7895 10.0201 61.6803 9.3309 61.4609 9.12472C61.2425 8.91853 61.0456 8.81544 60.8729 8.81544C60.4875 8.81544 60.074 9.16863 59.6316 9.87403C59.1901 10.5794 58.7692 11.4824 58.3697 12.5849V20.2528H56.5227H56.5236ZM77.2016 20.5201C75.376 20.5201 73.9163 19.8614 72.8205 18.5442C71.7248 17.2259 71.1779 15.5631 71.1779 13.5567C71.1779 11.5502 71.7257 9.88931 72.8205 8.5749C73.9163 7.26144 75.376 6.60376 77.2016 6.60376C79.0197 6.60376 80.4767 7.26144 81.5724 8.5749C82.6672 9.88931 83.2151 11.5502 83.2151 13.5567C83.2151 15.5631 82.6672 17.2259 81.5724 18.5432C80.4767 19.8614 79.0197 20.521 77.2016 20.521V20.5201ZM77.0709 18.6473C78.2292 18.6473 79.1504 18.1948 79.8336 17.2899C80.5177 16.385 80.8603 15.1403 80.8603 13.5567C80.8603 11.9807 80.5177 10.7408 79.8336 9.8349C79.1504 8.92999 78.2292 8.47753 77.0709 8.47753C75.9052 8.47753 74.9803 8.92999 74.2971 9.8349C73.6129 10.7398 73.2704 11.9807 73.2704 13.5567C73.2704 15.1412 73.6129 16.385 74.2971 17.2889C74.9812 18.1948 75.9052 18.6473 77.0709 18.6473ZM95.2523 19.6285C94.2396 20.059 93.5051 20.3158 93.0496 20.3979C92.6131 20.4782 92.1706 20.5194 91.7271 20.521C90.8227 20.521 89.9957 20.3444 89.2463 19.9922C88.4959 19.6409 87.9303 19.1198 87.5476 18.4315C87.1649 17.7433 86.9736 16.679 86.9736 15.2395V9.95803H83.7387V8.13867H86.9736V2.85717H89.1296V8.13867H94.8929V9.95803H89.1296V15.2042C89.1296 16.2599 89.2537 17.0054 89.5011 17.4398C89.7484 17.8741 90.0797 18.1939 90.4923 18.3962C90.9057 18.5995 91.3948 18.7017 91.9595 18.7017C93.0029 18.7017 94.1005 18.3695 95.2523 17.7042V19.6285V19.6285ZM97.0844 20.2528V0.983398H99.2273V9.83013C99.8424 8.80399 100.583 8.00026 101.451 7.41894C102.319 6.83762 103.188 6.54744 104.056 6.54744C104.786 6.54744 105.453 6.74026 106.056 7.1259C106.659 7.51249 107.079 7.98022 107.317 8.52908C107.51 8.95099 107.64 9.39867 107.709 9.87213C107.779 10.3456 107.813 11.323 107.813 12.8026V20.2528H105.669V12.5286C105.669 11.2476 105.61 10.4019 105.491 9.99144C105.38 9.59351 105.15 9.24087 104.834 8.98249C104.542 8.73025 104.173 8.59102 103.791 8.58922C103.038 8.58922 102.23 8.95863 101.366 9.69935C100.501 10.4391 99.7883 11.3669 99.2273 12.4809V20.2528H97.0844V20.2528ZM121.235 19.2706C119.511 20.1039 117.878 20.521 116.34 20.521C115.171 20.521 114.128 20.2251 113.208 19.6362C112.287 19.0463 111.55 18.2034 110.998 17.1066C110.447 16.019 110.162 14.811 110.168 13.5863C110.168 12.3835 110.431 11.2276 110.957 10.1184C111.483 9.01017 112.217 8.14726 113.161 7.52967C114.105 6.91303 115.157 6.60376 116.317 6.60376C117.856 6.60376 119.091 7.16217 120.023 8.27899C120.954 9.39581 121.42 11.1169 121.42 13.444V13.9165H112.488C112.488 14.8281 112.676 15.6614 113.051 16.4165C113.426 17.1706 113.919 17.7376 114.53 18.1156C115.141 18.4917 115.837 18.6807 116.618 18.6807C118.01 18.6807 119.549 18.2091 121.235 17.266V19.2706V19.2706ZM112.524 12.2241H119.065V11.9139C119.065 10.8639 118.803 10.0287 118.279 9.40822C117.754 8.78776 117.053 8.47753 116.176 8.47753C115.291 8.47753 114.526 8.79349 113.88 9.4254C113.234 10.0573 112.782 10.9909 112.524 12.2241V12.2241ZM123.514 20.2528V6.97222H125.663V9.87403C126.333 8.78013 127.101 7.96113 127.968 7.41799C128.835 6.87581 129.8 6.60376 130.863 6.60376C131.64 6.60376 132.419 6.7269 133.196 6.97222V11.764H131.128V8.7324C130.846 8.67731 130.56 8.64539 130.273 8.63694C129.472 8.63694 128.686 8.96149 127.916 9.61153C127.146 10.2616 126.395 11.2371 125.663 12.5372V20.2528H123.514V20.2528Z" fill="#4D4D4D"/>
</svg>
