<?xml version="1.0" encoding="UTF-8"?> <svg xmlns="http://www.w3.org/2000/svg" width="131" height="31" viewBox="0 0 131 31" fill="none"> <path fill-rule="evenodd" clip-rule="evenodd" d="M122.993 9.12583L119.574 9.12541C119.284 9.13413 119.01 9.17218 118.754 9.23988C118.28 9.36552 117.809 9.6277 117.461 9.97346C117.288 10.1456 117.137 10.3416 117.01 10.5605C116.744 11.0206 116.593 11.5814 116.593 12.1133V21.3805H118.42V15.1286H122.171V13.3021H118.42L118.42 12.1455C118.435 11.482 118.913 10.9523 119.595 10.9523H122.993V9.12583ZM92.6328 11.2749L92.6313 18.09C92.6312 18.4008 92.5183 18.6434 92.3344 18.8259C92.152 19.0065 91.9057 19.1026 91.5986 19.1058H89.4845C89.1739 19.1026 88.9265 19.0087 88.7386 18.8259C88.5522 18.6447 88.4518 18.3993 88.4518 18.09L88.4533 11.2749H86.101V18.3795C86.1165 18.9201 86.2408 19.4525 86.5094 19.9251C86.7625 20.3673 87.1135 20.7184 87.5556 20.9714C88.001 21.2246 88.5139 21.3799 89.0978 21.3799H91.9879C92.5258 21.3799 93.0572 21.2403 93.5268 20.9714C93.9655 20.7184 94.313 20.3673 94.5663 19.9251C94.8227 19.4797 94.9848 18.9671 94.9848 18.3795V11.2749H92.6328ZM84.8522 20.3674V11.2736H82.5004V17.0482H79.3676C78.7573 17.0419 78.3212 16.6308 78.3147 16.0153V11.2736H75.9626C75.9626 12.9413 75.9626 14.6093 75.9626 16.277C75.9724 18.0806 77.3034 19.3055 79.0407 19.3348H82.5004V20.0404C82.4973 20.3199 82.4121 20.5839 82.2134 20.7862C82.0244 20.9718 81.7781 21.0696 81.4676 21.073H76.8507C76.8507 21.201 76.8413 22.3496 76.8413 23.4251L81.7946 23.425C82.3462 23.425 82.892 23.2949 83.374 23.02C83.8296 22.7603 84.1873 22.4024 84.4471 21.9468C84.7071 21.4911 84.8522 20.9647 84.8522 20.3674V20.3674ZM65.8042 14.3332C65.8211 13.7357 65.9594 13.2093 66.2193 12.757C66.4792 12.3048 66.8336 11.9504 67.2858 11.6905C67.738 11.4307 68.2643 11.2755 68.8618 11.2755H72.3621V9.12903H74.714V18.3223C74.7047 18.8762 74.5859 19.426 74.3124 19.912C74.0559 20.3675 73.7015 20.7219 73.2459 20.9783C72.7903 21.2348 72.2604 21.3699 71.6563 21.3799H68.8618C68.2645 21.3699 67.738 21.2348 67.2824 20.9783C66.8268 20.7219 66.469 20.3674 66.2093 19.912C65.9493 19.4563 65.8042 18.9265 65.8042 18.3223V14.3332ZM68.1563 18.0607C68.1596 18.3711 68.2575 18.6175 68.443 18.8065C68.632 18.992 68.8785 19.0899 69.1889 19.0933H71.3293C71.6089 19.0903 71.8728 19.0051 72.0753 18.8065C72.2608 18.6175 72.3587 18.3711 72.3621 18.0607V13.6275H69.1889C68.9095 13.6304 68.6455 13.7155 68.443 13.9142C68.2575 14.1032 68.1596 14.3495 68.1563 14.6601V18.0607V18.0607ZM131 19.5612H127.626C127.452 19.5612 127.294 19.5322 127.153 19.4766C127.007 19.4191 126.88 19.3333 126.773 19.2209C126.668 19.1108 126.587 18.9821 126.534 18.8361C126.481 18.6942 126.454 18.535 126.452 18.3594L126.451 15.2068H130.042V13.3802H126.451V9.11841H124.621L124.624 18.4244C124.625 19.188 124.942 19.9926 125.482 20.5385C126.021 21.0827 126.822 21.3881 127.584 21.388L131 21.3876V19.5612ZM58.0238 21.3799V14.6514C58.0238 14.3405 58.1363 14.0982 58.3207 13.9156C58.5034 13.7345 58.7493 13.6389 59.0564 13.6354H61.1704C61.481 13.6389 61.7284 13.7326 61.9164 13.9156C62.1027 14.0967 62.2032 14.3414 62.2032 14.6514V21.3799H64.5556V14.2753C64.54 13.7347 64.4157 13.2024 64.1473 12.7296C63.8941 12.2874 63.5432 11.9365 63.1009 11.6833C62.6554 11.4303 62.1427 11.275 61.5586 11.275H58.6687C58.1308 11.275 57.5993 11.4147 57.1298 11.6833C56.6911 11.9365 56.3434 12.2874 56.0903 12.7296C55.8338 13.175 55.6717 13.6879 55.6717 14.2753V21.3799H58.0238ZM44.2849 14.3335C44.268 13.7361 44.1294 13.2096 43.8696 12.7574C43.6097 12.3052 43.2554 11.9507 42.8032 11.6909C42.351 11.4311 41.8246 11.2758 41.2271 11.2758H37.7269V9.12941H35.375V18.3227C35.3843 18.8766 35.5031 19.4264 35.7767 19.9123C36.0331 20.3679 36.3875 20.7222 36.8431 20.9787C37.2988 21.2352 37.8286 21.3702 38.4327 21.3803H41.2271C41.8244 21.3702 42.351 21.2352 42.8065 20.9787C43.2621 20.7222 43.6199 20.3678 43.8798 19.9123C44.1396 19.4566 44.2849 18.9268 44.2849 18.3227V14.3335ZM41.9328 18.0607C41.9295 18.3711 41.8316 18.6175 41.6459 18.8065C41.4569 18.992 41.2105 19.0899 40.9001 19.0933H38.7597C38.4802 19.0903 38.2162 19.0051 38.0138 18.8065C37.8282 18.6175 37.7304 18.3711 37.7269 18.0607V13.6275H40.9001C41.1797 13.6304 41.4436 13.7155 41.6459 13.9142C41.8316 14.1032 41.9295 14.3495 41.9328 14.6601V18.0607V18.0607ZM54.423 20.3674V11.2736H52.0711V17.0482H48.9385C48.3281 17.0419 47.892 16.6308 47.8855 16.0153V11.2736H45.5335C45.5335 12.9413 45.5335 14.6093 45.5335 16.277C45.5433 18.0806 46.8743 19.3055 48.6115 19.3348H52.0711V20.0404C52.0681 20.3199 51.9829 20.5839 51.7842 20.7862C51.5953 20.9718 51.3489 21.0696 51.0383 21.073H46.4215C46.4215 21.201 46.4121 22.3496 46.4121 23.4251L51.3654 23.425C51.917 23.425 52.4629 23.2949 52.9449 23.02C53.4005 22.7603 53.7582 22.4024 54.0181 21.9468C54.2779 21.4911 54.423 20.9647 54.423 20.3674V20.3674ZM104.581 18.4725C104.58 18.1694 104.547 17.8848 104.483 17.619C104.151 16.2402 102.976 15.4012 101.593 15.4014L99.3275 15.4017C99.1436 15.4017 98.9615 15.3829 98.7877 15.315C98.643 15.2584 98.5163 15.175 98.4066 15.0653C98.2986 14.9573 98.2158 14.83 98.1597 14.6845C98.1051 14.5431 98.0761 14.385 98.0742 14.2117C98.0742 14.0594 98.1014 13.9026 98.1573 13.7609C98.2114 13.6234 98.2917 13.5015 98.3967 13.3976C98.4973 13.298 98.6154 13.2166 98.75 13.1588C98.9062 13.0927 99.0742 13.0611 99.2441 13.0611H104.144V11.2438L99.2441 11.2435C98.9475 11.2435 98.6689 11.2908 98.4085 11.3589C98.171 11.4209 97.948 11.5076 97.74 11.618C97.4996 11.7452 97.276 11.9107 97.0826 12.1028C96.9386 12.2459 96.8111 12.4051 96.7006 12.5801C96.5449 12.8272 96.4272 13.0968 96.3543 13.3806C96.2907 13.6274 96.2576 13.8904 96.256 14.1691C96.2576 14.4669 96.2909 14.7476 96.3548 15.0108C96.4187 15.2746 96.5138 15.5208 96.6387 15.749C96.7619 15.9743 96.9109 16.1754 97.0844 16.3522C97.663 16.9418 98.4548 17.2195 99.2648 17.2195L101.574 17.2196C102.358 17.2278 102.928 17.9242 102.726 18.7208C102.626 19.1155 102.313 19.4246 101.918 19.5218C101.816 19.5471 101.707 19.5596 101.593 19.5596H96.6506V21.377L101.593 21.3775C102.417 21.3587 103.19 21.0721 103.743 20.5418C104.09 20.2099 104.35 19.7825 104.483 19.2653C104.547 19.0165 104.58 18.7517 104.581 18.4725V18.4725ZM109.924 11.2544L109.009 11.2539C108.711 11.2538 108.431 11.2951 108.168 11.3621C107.907 11.4287 107.664 11.5256 107.441 11.6528C107.218 11.7802 107.019 11.9316 106.845 12.1065C106.482 12.4711 106.234 12.9298 106.107 13.4275C106.041 13.6883 106.005 13.9657 106 14.2594V18.3827C106.005 18.6764 106.041 18.9538 106.107 19.2145C106.235 19.7158 106.481 20.1696 106.847 20.537C107.021 20.7113 107.219 20.8622 107.441 20.9891C107.664 21.1163 107.907 21.2134 108.168 21.2799C108.431 21.347 108.711 21.3829 109.009 21.388L110.901 21.3875L111.899 21.388C112.197 21.3881 112.479 21.3468 112.743 21.2798C113.005 21.2134 113.249 21.1163 113.473 20.9891C113.697 20.8615 113.898 20.7096 114.074 20.5343C114.243 20.3661 114.391 20.1764 114.515 19.9658C114.652 19.7327 114.754 19.4778 114.821 19.2158C114.887 18.9561 114.923 18.6782 114.928 18.3827V14.2594C114.914 13.459 114.653 12.6824 114.074 12.1078C113.898 11.9323 113.697 11.7806 113.473 11.6528C113.249 11.5256 113.005 11.4287 112.743 11.3622C112.479 11.2951 112.197 11.2591 111.899 11.2539L109.924 11.2544ZM113.11 18.3838C113.108 18.5567 113.079 18.7135 113.025 18.8541C112.969 18.9988 112.886 19.1262 112.778 19.2366C112.67 19.3443 112.538 19.429 112.396 19.484C112.235 19.5466 112.071 19.5664 111.899 19.5705L109.008 19.57C108.832 19.568 108.674 19.539 108.532 19.484C108.388 19.4282 108.261 19.3456 108.152 19.2381C108.043 19.1297 107.958 18.997 107.903 18.8541C107.849 18.7135 107.82 18.5566 107.818 18.3838V14.2584C107.82 14.0851 107.849 13.927 107.904 13.7857C108.017 13.4913 108.237 13.2726 108.532 13.1582C108.674 13.1033 108.832 13.0744 109.008 13.0724H111.92C112.096 13.0744 112.254 13.1033 112.396 13.1582C112.54 13.2141 112.667 13.2965 112.777 13.4041C112.885 13.5125 112.969 13.6425 113.025 13.7857C113.079 13.9271 113.108 14.0851 113.11 14.2584V18.3838Z" fill="#1A1919"></path> <path fill-rule="evenodd" clip-rule="evenodd" d="M15.2993 0.678833C23.7474 0.678833 30.5985 7.31587 30.5985 15.5C30.5985 23.6841 23.7474 30.3211 15.2993 30.3211C6.85116 30.3211 0 23.6841 0 15.5C0 7.31587 6.85116 0.678833 15.2993 0.678833" fill="#A80090"></path> <path fill-rule="evenodd" clip-rule="evenodd" d="M22.9224 18.5869C22.9208 18.2839 22.8882 17.9994 22.8243 17.7335C22.4923 16.3546 21.3173 15.5156 19.9343 15.5158L17.6685 15.5163C17.4847 15.5163 17.3024 15.4973 17.1287 15.4294C16.9841 15.3728 16.8572 15.2894 16.7476 15.1797C16.6397 15.0718 16.5569 14.9443 16.5007 14.7989C16.4461 14.6574 16.4173 14.4995 16.4153 14.3262C16.4153 14.174 16.4423 14.0171 16.4982 13.8754C16.5525 13.7378 16.6326 13.616 16.7378 13.512C16.8384 13.4124 16.9564 13.331 17.091 13.2731C17.2472 13.2071 17.4152 13.1756 17.5851 13.1756H22.4845V11.3582L17.5851 11.3579C17.2885 11.3579 17.0098 11.4052 16.7495 11.4733C16.512 11.5352 16.2891 11.622 16.0811 11.7325C15.8482 11.8557 15.6312 12.0147 15.4422 12.199C15.282 12.0494 15.1033 11.9182 14.9061 11.8047C14.454 11.5451 13.9275 11.3897 13.33 11.3897H9.82987V9.24329H7.47791V18.4365C7.48722 18.9906 7.60603 19.5402 7.87948 20.0262C8.13599 20.4818 8.49026 20.8361 8.94596 21.0925C9.40166 21.3491 9.93145 21.4841 10.5356 21.4943L19.9343 21.4919C20.7579 21.473 21.531 21.1866 22.0843 20.6564C22.4306 20.3244 22.6912 19.897 22.824 19.3799C22.888 19.1311 22.9208 18.8662 22.9224 18.5869V18.5869ZM16.3877 17.1051C16.7708 17.2592 17.1859 17.334 17.6059 17.334L19.9145 17.3341C20.6994 17.3422 21.2695 18.0386 21.0672 18.8352C20.967 19.2299 20.654 19.539 20.2593 19.6362C20.1568 19.6614 20.0483 19.6741 19.9343 19.6741H16.1542C16.3054 19.3036 16.3877 18.8911 16.3877 18.4365V17.1051ZM14.0356 18.175C14.0324 18.4855 13.9345 18.7318 13.7489 18.9208C13.5598 19.1066 13.3134 19.2043 13.003 19.2078H10.8625C10.583 19.2047 10.3191 19.1196 10.1167 18.9208C9.93117 18.7318 9.8332 18.4855 9.82986 18.175V13.7418H13.003C13.2826 13.7447 13.5465 13.8299 13.7489 14.0286C13.9345 14.2176 14.0324 14.464 14.0356 14.7746V18.175V18.175Z" fill="#FFFFFE"></path> </svg> 