<?xml version="1.0" encoding="UTF-8"?> <svg xmlns="http://www.w3.org/2000/svg" xmlns:xlink="http://www.w3.org/1999/xlink" width="1341px" height="436px" viewBox="0 0 1341 436"> <!-- Generator: Sketch 56.3 (81716) - https://sketch.com --> <title>Artboard</title> <desc>Created with Sketch.</desc> <g id="Artboard" stroke="none" stroke-width="1" fill="none" fill-rule="evenodd"> <path d="M8.35714286,436 C3.7416203,436 0,432.260463 0,427.64751 C0,423.034556 3.7416203,419.295019 8.35714286,419.295019 C123.811678,419.295019 217.285714,329.10484 217.285714,217.995309 C217.285714,106.893769 123.81023,16.7049808 8.35714286,16.7049808 C3.7416203,16.7049808 0,12.9654435 0,8.35249042 C0,3.73953734 3.7416203,0 8.35714286,0 C132.912058,0 234,97.5335836 234,217.995309 C234,338.464906 132.913617,436 8.35714286,436 Z M1069.35821,40 C1064.7421,40 1061,36.1944204 1061,31.5 C1061,26.8055796 1064.7421,23 1069.35821,23 L1332.64179,23 C1337.2579,23 1341,26.8055796 1341,31.5 C1341,36.1944204 1337.2579,40 1332.64179,40 L1069.35821,40 Z M1077.71642,233.721311 L1077.71642,412.639344 C1077.71642,417.256807 1073.97432,421 1069.35821,421 C1064.7421,421 1061,417.256807 1061,412.639344 L1061,225.360656 C1061,220.743193 1064.7421,217 1069.35821,217 L1332.64179,217 C1337.2579,217 1341,220.743193 1341,225.360656 C1341,229.978118 1337.2579,233.721311 1332.64179,233.721311 L1077.71642,233.721311 Z M501.358209,40 C496.742098,40 493,36.1944204 493,31.5 C493,26.8055796 496.742098,23 501.358209,23 L764.641791,23 C769.257902,23 773,26.8055796 773,31.5 C773,36.1944204 769.257902,40 764.641791,40 L501.358209,40 Z M501.358209,226 C496.742098,226 493,222.19442 493,217.5 C493,212.80558 496.742098,209 501.358209,209 L764.641791,209 C769.257902,209 773,212.80558 773,217.5 C773,222.19442 769.257902,226 764.641791,226 L501.358209,226 Z M501.358209,413 C496.742098,413 493,409.19442 493,404.5 C493,399.80558 496.742098,396 501.358209,396 L764.641791,396 C769.257902,396 773,399.80558 773,404.5 C773,409.19442 769.257902,413 764.641791,413 L501.358209,413 Z" id="Combined-Shape" fill="#151515"></path> </g> </svg> 