<?xml version="1.0" encoding="UTF-8"?> <svg xmlns="http://www.w3.org/2000/svg" width="1954" height="420" viewBox="0 0 1954 420" fill="none"> <path d="M510.02 349.792H620.915C710.281 349.792 772.025 287.642 772.025 207.619C772.025 126.783 710.281 65.4451 620.915 65.4451H510.02V349.792ZM572.576 293.329V121.908H620.915C672.097 121.908 706.625 157.249 706.625 207.619C706.625 258.801 672.097 293.329 620.915 293.329H572.576Z" fill="#222222"></path> <path d="M927.559 355.299C995.396 355.299 1045.77 304.522 1045.77 241.966C1045.77 178.597 995.802 128.633 928.371 128.633C860.534 128.633 810.164 179.41 810.164 241.966C810.164 305.335 860.128 355.299 927.559 355.299ZM928.371 302.085C894.249 302.085 871.095 274.057 871.095 241.966C871.095 209.063 892.218 181.847 927.559 181.847C961.68 181.847 984.834 209.875 984.834 241.966C984.834 274.869 963.711 302.085 928.371 302.085Z" fill="#222222"></path> <path d="M1161.98 355.118C1193.26 355.118 1211.54 338.463 1225.76 320.184V353.313L1287.5 353.313V133.327H1225.76V254.784C1225.76 284.031 1210.73 299.061 1187.17 299.061C1163.61 299.061 1149.8 284.031 1149.8 254.784V133.327H1088.05V274.282C1088.05 324.246 1115.27 355.118 1161.98 355.118Z" fill="#222222"></path> <path d="M1342.77 353.313L1404.51 353.313V229.599C1404.51 200.352 1418.73 185.322 1441.88 185.322C1465.03 185.322 1478.03 200.352 1478.03 229.599V353.313H1539.78V229.599C1539.78 200.352 1553.99 185.322 1577.15 185.322C1600.3 185.322 1613.3 200.352 1613.3 229.599V353.313H1675.05V209.289C1675.05 156.887 1647.42 129.265 1601.52 129.265C1571.87 129.265 1549.12 141.451 1530.03 163.793C1518.65 141.858 1497.13 129.265 1468.69 129.265C1437.41 129.265 1418.73 145.92 1404.51 164.199V133.327H1342.77V353.313Z" fill="#222222"></path> <path d="M1835.36 353.313C1903.2 353.313 1953.57 302.536 1953.57 239.98C1953.57 176.611 1908.33 129.265 1840.9 129.265C1773.07 129.265 1717.96 177.424 1717.96 239.98C1717.96 303.349 1767.93 353.313 1835.36 353.313ZM1836.17 300.099C1802.05 300.099 1778.9 272.071 1778.9 239.98C1778.9 207.077 1800.02 179.861 1835.36 179.861C1869.48 179.861 1892.64 207.889 1892.64 239.98C1892.64 272.883 1871.51 300.099 1836.17 300.099Z" fill="#222222"></path> <g clip-path="url(#clip0)"> <path d="M323.789 0C300.017 0 280.828 19.1893 280.828 42.9612V43.9637C280.828 60.1457 264.503 71.0292 249.466 65.3011C229.418 57.568 207.794 53.2719 185.024 52.9855C84.0654 52.1263 0.720655 134.039 0.00463456 234.998C-0.711386 336.816 81.6309 419.731 183.306 419.731C284.551 419.731 366.607 337.675 366.607 236.43V42.9612C366.75 19.1893 347.561 0 323.789 0ZM183.306 333.809C129.461 333.809 85.9271 290.131 85.9271 236.43C85.9271 182.728 129.604 139.051 183.306 139.051C237.007 139.051 280.685 182.728 280.685 236.43C280.685 290.131 237.151 333.809 183.306 333.809Z" fill="#FE3003"></path> <path d="M280.961 419.732H343.828C356.43 419.732 366.74 409.422 366.74 396.82V333.953C347.264 370.327 317.335 400.257 280.961 419.732Z" fill="#21B1B1"></path> </g> <defs> <clipPath id="clip0"> <rect width="366.746" height="419.731" fill="white"></rect> </clipPath> </defs> </svg> 