<svg width="140" height="30" viewBox="0 0 140 30" fill="none" xmlns="http://www.w3.org/2000/svg">
<g clip-path="url(#clip0)">
<path d="M44.9273 8.99486L45.0212 8.99571C46.3162 8.99571 47.3815 9.46629 48.2787 10.4366C49.2084 11.4394 49.6702 12.5837 49.6924 13.9397C49.7376 15.3754 49.2741 16.5926 48.277 17.6657C47.3773 18.6549 46.3179 19.1357 45.0374 19.1357L44.7727 19.1297C43.4769 19.0851 42.409 18.5674 41.5075 17.5474C40.606 16.53 40.1613 15.3223 40.1826 13.9586C40.2048 12.5614 40.6726 11.412 41.6134 10.4443C42.5473 9.48257 43.6613 8.99571 44.9264 8.99571L44.9273 8.99486V8.99486ZM49.7402 8.19943C48.4571 7.01743 46.9188 6.38571 45.1552 6.32143C43.0885 6.24429 41.2881 6.99686 39.801 8.55343C38.3148 10.0834 37.561 11.9494 37.561 14.0991C37.561 16.1717 38.2559 17.9777 39.6277 19.4649C41.0081 20.964 42.724 21.75 44.7215 21.8023L45.0101 21.8083C46.9291 21.8083 48.6475 21.066 50.1218 19.5986C51.6438 18.0574 52.3908 16.1957 52.3404 14.0751V0.00171429H49.7419V8.20114L49.7402 8.19943V8.19943ZM63.957 15.4697C63.957 16.5257 63.5831 17.4249 62.8165 18.2134C62.0542 18.9763 61.1954 19.3474 60.1907 19.3474C59.1714 19.3474 58.3041 18.9763 57.546 18.2177C56.7923 17.442 56.4252 16.5429 56.4252 15.4706V6.85886H53.7797V15.2503C53.7797 17.1686 54.3866 18.7929 55.5877 20.0811C56.8127 21.3694 58.3621 22.0226 60.1915 22.0226C62.0303 22.0226 63.5729 21.3677 64.7714 20.0811C65.987 18.8031 66.6034 17.1789 66.6034 15.2503V6.85886H63.957V15.4706V15.4697ZM74.9223 9.51429C76.1976 9.51429 77.2946 9.99857 78.1807 10.9551C79.1095 11.9589 79.5721 13.1031 79.5935 14.4531C79.6165 15.9146 79.1462 17.1429 78.1568 18.2066C77.2357 19.1974 76.1729 19.6791 74.9043 19.6791L74.6576 19.6731C73.3507 19.6037 72.2802 19.0783 71.3847 18.0669C70.4867 17.0529 70.0615 15.8786 70.0837 14.478C70.1068 13.0809 70.5737 11.9314 71.5145 10.9629C72.4612 9.98914 73.576 9.51514 74.9223 9.51514V9.51429V9.51429ZM80.1979 9.25114C78.8098 7.746 77.0795 6.942 75.0563 6.864C72.9623 6.78257 71.1508 7.53 69.6782 9.072C68.192 10.602 67.4382 12.4671 67.4382 14.6169C67.4382 16.6723 68.1417 18.4783 69.5271 19.9834C70.8998 21.4731 72.6054 22.2686 74.5987 22.3457L74.8719 22.35C76.6876 22.35 78.2882 21.7106 79.6413 20.448V22.0269H82.2159V14.6906L82.2151 14.6083C82.2902 12.5614 81.6115 10.7589 80.1979 9.25114V9.25114ZM83.6578 21.5083H86.2802V0.000857143H83.6578V21.5083ZM100.084 13.9586C100.106 15.342 99.6733 16.5154 98.7598 17.5474C97.8635 18.5597 96.793 19.086 95.4886 19.1537C94.1356 19.2223 92.99 18.7414 91.9878 17.688C90.9924 16.6183 90.5297 15.3917 90.575 13.9346C90.5963 12.5846 91.059 11.4403 91.9886 10.4366C92.8747 9.48 93.97 8.99571 95.2462 8.99571C96.583 8.99571 97.6885 9.47657 98.6301 10.4683C99.587 11.4531 100.063 12.5949 100.085 13.9586H100.084V13.9586ZM95.1122 6.34543C93.334 6.41143 91.7965 7.03886 90.5271 8.21657V0H87.9286V14.0631C87.8782 16.194 88.6243 18.0557 90.1473 19.5969C91.6121 21.0797 93.3323 21.8323 95.259 21.8323L95.5475 21.8263C97.5553 21.7474 99.2695 20.9529 100.641 19.464C102.028 17.9589 102.731 16.1529 102.731 14.0974C102.731 11.964 101.97 10.0989 100.469 8.55429C98.9946 7.01057 97.1874 6.26571 95.113 6.34457L95.1122 6.34543V6.34543ZM110.681 9.53743L110.777 9.53829C112.055 9.53829 113.112 10.0097 114.01 10.9791C114.933 11.976 115.404 13.122 115.448 14.4763C115.471 15.9214 115.001 17.142 114.009 18.2083C113.11 19.1966 112.05 19.6783 110.769 19.6783L110.504 19.6714C109.209 19.626 108.142 19.1091 107.239 18.09C106.342 17.0751 105.916 15.9009 105.939 14.5011C105.961 13.104 106.43 11.9537 107.37 10.986C108.317 10.0114 109.4 9.53743 110.682 9.53743H110.681V9.53743ZM110.887 6.86314C108.821 6.786 107.02 7.53857 105.533 9.09514C104.047 10.6251 103.293 12.4911 103.293 14.6409C103.293 16.7134 103.988 18.5194 105.359 20.0066C106.74 21.5066 108.455 22.2934 110.452 22.3449L110.741 22.3509C112.676 22.3509 114.381 21.606 115.807 20.1377C117.31 18.5914 118.071 16.734 118.071 14.616C118.071 12.5606 117.368 10.7554 115.983 9.25286C114.619 7.746 112.905 6.94286 110.887 6.86314V6.86314ZM126.047 9.53743L126.143 9.53829C127.421 9.53829 128.478 10.0097 129.376 10.9791C130.3 11.976 130.769 13.122 130.814 14.4763C130.836 15.9214 130.366 17.142 129.374 18.2083C128.474 19.1966 127.415 19.6783 126.134 19.6783H126.133L125.869 19.6714C124.574 19.626 123.506 19.1091 122.604 18.09C121.706 17.0751 121.281 15.9009 121.303 14.5011C121.326 13.104 121.794 11.9537 122.734 10.986C123.681 10.0114 124.765 9.53743 126.047 9.53743V9.53743ZM126.252 6.86314C124.189 6.786 122.384 7.53857 120.897 9.09514C119.411 10.6251 118.657 12.4911 118.657 14.6409C118.657 16.7134 119.352 18.5194 120.723 20.0066C122.104 21.5066 123.819 22.2934 125.817 22.3449L126.104 22.3509C128.04 22.3509 129.745 21.606 131.172 20.1377C132.673 18.5914 133.435 16.734 133.435 14.616C133.435 12.5606 132.732 10.7554 131.348 9.25286C129.984 7.746 128.269 6.94286 126.252 6.86314V6.86314Z" fill="#4D4D4D"/>
<path d="M137.2 6.89914V0H134.748V6.89914H132.316V9.43457H134.748V21.7886H137.2V9.43457H139.632V6.89914H137.2V6.89914ZM39.2972 27.4329H40.6221C41.7524 27.4329 41.7464 25.7246 40.6221 25.7246H39.2972V27.4329ZM40.6221 28.2669H39.2972V29.6863H38.4137V24.864L40.6221 24.8571C42.9108 24.8571 42.9176 28.2669 40.6221 28.2669V28.2669ZM54.6554 25.8694L53.7855 27.9223H55.5261L54.6554 25.8694ZM55.8804 28.77H53.4313L53.03 29.6794H52.0731L54.1739 24.8571H55.1377L57.2394 29.6794H56.2757L55.8804 28.77ZM67.4671 25.7109V27.2537H68.8125C69.3751 27.2537 69.6158 26.868 69.6158 26.4823C69.6158 26.0957 69.3682 25.7109 68.8125 25.7109H67.4671V25.7109ZM70.7332 29.6863H69.6824L68.3174 28.074H67.4671V29.6863H66.5844V24.8571L68.8125 24.864C69.9171 24.8709 70.4993 25.6277 70.4993 26.4626C70.4993 27.1234 70.2048 27.792 69.3144 27.978L70.7332 29.6246V29.6871V29.6863ZM81.7292 25.6834H80.243V24.8571H84.0981V25.6834H82.6128V29.6794H81.7301V25.6834H81.7292ZM96.9133 24.8571H97.7968V29.6863H97.2487V29.6931L94.7851 26.4343V29.6863H93.9015V24.864H94.6178L96.9133 27.8537V24.8563V24.8571ZM121.249 25.7109V27.2537H122.594C123.156 27.2537 123.397 26.868 123.397 26.4823C123.397 26.0957 123.15 25.7109 122.594 25.7109H121.249V25.7109ZM124.514 29.6863H123.463L122.098 28.074H121.248V29.6863H120.364V24.8571L122.593 24.864C123.697 24.8709 124.279 25.6277 124.279 26.4626C124.279 27.1234 123.984 27.792 123.094 27.978L124.513 29.6246V29.6871L124.514 29.6863ZM137.182 26.1866C137.022 25.9106 136.58 25.6491 136.071 25.6491C135.416 25.6491 135.102 25.9311 135.102 26.2903C135.102 26.7103 135.583 26.8277 136.146 26.8963C137.122 27.0206 138.033 27.282 138.033 28.4323C138.033 29.5071 137.11 29.9691 136.065 29.9691C135.109 29.9691 134.372 29.6666 134.024 28.7837L134.76 28.3903C134.969 28.9209 135.51 29.1557 136.079 29.1557C136.635 29.1557 137.156 28.9551 137.156 28.4314C137.156 27.9771 136.695 27.7911 136.072 27.7226C135.115 27.6051 134.232 27.3437 134.232 26.2611C134.232 25.2694 135.182 24.8623 136.046 24.8554C136.775 24.8554 137.532 25.0689 137.886 25.8137L137.183 26.1849L137.182 26.1866ZM111.067 29.6794H107.56V24.8571H111.067V25.7383H108.437V26.8474H110.974V27.6951H108.437V28.7837H111.067V29.6794Z" fill="#4D4D4D"/>
<path fill-rule="evenodd" clip-rule="evenodd" d="M15.9036 0.0352124C15.1987 -0.0136613 14.4912 -0.0116561 13.7866 0.0412124V10.2515C12.6389 9.2221 11.1536 8.65358 9.61473 8.65464C6.2479 8.65464 3.49143 11.3298 3.3429 14.6744H5.46338C5.53578 13.618 6.00446 12.6285 6.7749 11.9055C7.54534 11.1825 8.56019 10.7798 9.61473 10.7786C10.489 10.7803 11.3405 11.0581 12.0488 11.5727C12.7571 12.0873 13.2862 12.8125 13.5612 13.6458C13.731 12.7978 14.0629 11.9909 14.5386 11.2698C14.5651 11.2321 14.5933 11.1952 14.6197 11.1566C14.9185 10.7246 15.2668 10.3278 15.6595 9.97636L15.9036 9.75693V2.16607C22.4725 2.68636 27.6585 8.21921 27.6585 14.9444C27.6585 18.3686 26.3319 21.5872 23.9186 24.0078C21.8742 26.0702 19.187 27.366 16.3057 27.6789V29.8158C19.7506 29.4959 22.9746 27.9725 25.416 25.5112C26.8026 24.127 27.9021 22.4802 28.6505 20.6664C29.399 18.8526 29.7817 16.9077 29.7764 14.9444C29.7764 7.04664 23.6412 0.561498 15.9045 0.0352124H15.9036Z" fill="#4D4D4D"/>
<path fill-rule="evenodd" clip-rule="evenodd" d="M9.61472 19.1326C8.56046 19.1315 7.54584 18.729 6.77545 18.0064C6.00505 17.2837 5.53619 16.2947 5.46338 15.2386H3.3429C3.49143 18.5832 6.24789 21.2583 9.61472 21.2583C11.1539 21.2593 12.6394 20.6901 13.7866 19.6598C14.4144 19.102 14.9239 18.423 15.2849 17.6633C15.6458 16.9036 15.8507 16.0787 15.8874 15.2378H15.9241C15.9108 15.0494 15.9108 14.8604 15.9241 14.6721C15.9566 14.1749 16.0803 13.7052 16.2716 13.2723C16.5967 12.531 17.1292 11.9005 17.8045 11.4574C18.4798 11.0143 19.2688 10.7777 20.0755 10.7763C21.1301 10.7773 22.1452 11.1799 22.9158 11.9029C23.6864 12.626 24.1552 13.6156 24.2276 14.6721H26.3481C26.2005 11.3275 23.4431 8.65234 20.0755 8.65234C18.6447 8.65234 17.3275 9.13749 16.2716 9.9492C16.1454 10.0444 16.0229 10.1444 15.9045 10.2492C15.5007 10.6101 15.1447 11.0206 14.8459 11.4723C14.2135 12.4231 13.8527 13.5298 13.8028 14.6721H13.7661C13.7804 14.8603 13.7804 15.0495 13.7661 15.2378C13.6935 16.294 13.2247 17.2832 12.4543 18.006C11.6839 18.7289 10.6691 19.1314 9.61472 19.1326V19.1326Z" fill="#4D4D4D"/>
<path fill-rule="evenodd" clip-rule="evenodd" d="M26.3482 15.2367H24.2268C24.154 16.2929 23.685 17.2821 22.9145 18.0047C22.1439 18.7274 21.129 19.1298 20.0746 19.1307C19.2005 19.1294 18.349 18.852 17.6407 18.3377C16.9324 17.8234 16.4032 17.0983 16.1282 16.2653C15.96 17.1136 15.6276 17.9206 15.1499 18.6404C15.1243 18.679 15.0961 18.7158 15.0705 18.7536C14.7709 19.1866 14.4216 19.5827 14.0299 19.9338L13.7857 20.1524V27.7098C10.7887 27.4584 7.97832 26.145 5.85695 24.0044C4.66745 22.8172 3.72439 21.4048 3.08242 19.849C2.44045 18.2932 2.11233 16.625 2.11707 14.941C2.11707 8.38384 7.04951 2.96412 13.3837 2.21412V0.078125C5.87915 0.836696 0 7.20955 0 14.941C0 18.9327 1.54854 22.6853 4.36049 25.5078C5.73956 26.9004 7.38019 28.0042 9.18729 28.7553C10.9944 29.5064 12.932 29.8899 14.8878 29.8836C15.2284 29.8836 15.5665 29.8715 15.9037 29.8493V19.6578C17.0508 20.6883 18.5363 21.2575 20.0755 21.2564C23.4432 21.2564 26.2005 18.5813 26.3482 15.2367V15.2367Z" fill="#4D4D4D"/>
</g>
<defs>
<clipPath id="clip0">
<rect width="140" height="30" fill="white"/>
</clipPath>
</defs>
</svg>
