<?xml version="1.0" encoding="UTF-8" standalone="no"?>
<!DOCTYPE svg PUBLIC "-//W3C//DTD SVG 1.1//EN" "http://www.w3.org/Graphics/SVG/1.1/DTD/svg11.dtd">
<svg width="100%" height="100%" viewBox="0 0 14359 2067" version="1.1" xmlns="http://www.w3.org/2000/svg" xmlns:xlink="http://www.w3.org/1999/xlink" xml:space="preserve" xmlns:serif="http://www.serif.com/" style="fill-rule:evenodd;clip-rule:evenodd;stroke-linejoin:round;stroke-miterlimit:1.41421;">
    <g transform="matrix(4.16667,0,0,4.16667,-18727.5,5591.6)">
        <g transform="matrix(0.24,0,0,0.24,4494.61,-1341.98)">
            <path d="M8584.17,1068.75C8584.17,1160.57 8553.02,1230.65 8490.75,1278.99C8428.45,1327.3 8341.01,1351.47 8228.38,1351.47C8138.14,1351.47 8064.27,1333.48 8006.75,1297.56C7949.26,1261.6 7903.74,1210.9 7870.2,1145.42L8040.31,1062.75C8061.06,1099.5 8085.63,1127.44 8113.98,1146.62C8142.33,1165.79 8180.48,1175.35 8228.38,1175.35C8256.33,1175.35 8279.49,1172.96 8297.88,1168.18C8316.24,1163.37 8330.81,1156.58 8341.59,1147.81C8352.36,1139.01 8359.95,1128.64 8364.34,1116.66C8368.75,1104.68 8370.93,1091.1 8370.93,1075.92C8370.93,1051.97 8365.33,1033.41 8354.17,1020.21C8342.98,1007.03 8321.83,997.658 8290.68,992.058C8260.32,987.287 8229.38,982.675 8197.85,978.309C8166.29,973.904 8135.75,968.313 8106.2,961.521C8076.66,954.733 8048.89,945.559 8022.92,933.958C7996.99,922.388 7974.41,907.008 7955.26,887.863C7936.09,868.687 7920.91,844.529 7909.72,815.363C7898.56,786.221 7892.96,750.5 7892.96,708.158C7892.96,666.638 7901.53,629.687 7918.72,597.342C7935.89,564.996 7959.63,538.046 7990,516.479C8020.32,494.921 8056.08,478.542 8097.2,467.35C8138.34,456.187 8183.28,450.596 8231.97,450.596C8315.84,450.596 8384.31,464.579 8437.43,492.525C8490.55,520.475 8535.08,563.6 8571,621.909L8399.69,705.771C8381.33,677.796 8359.57,657.046 8334.39,643.467C8309.24,629.887 8275.1,623.096 8231.97,623.096C8186.45,623.096 8153.9,630.092 8134.36,644.054C8114.77,658.038 8105.01,676.596 8105.01,699.767C8105.01,722.142 8109.79,738.313 8119.37,748.283C8128.96,758.279 8144.14,765.267 8164.89,769.267C8196.82,774.834 8229.38,779.838 8262.53,784.242C8295.66,788.608 8327.8,794.409 8358.96,801.613C8390.1,808.771 8419.45,818.362 8447.02,830.338C8474.55,842.317 8498.53,858.487 8518.9,878.858C8539.27,899.225 8555.24,924.783 8566.8,955.517C8578.4,986.292 8584.17,1024.03 8584.17,1068.75ZM6195.46,891.446C6195.46,952.925 6190.07,1011.44 6179.28,1066.95C6168.51,1122.46 6148.34,1171.17 6118.79,1213.08C6089.21,1255.02 6048.89,1288.55 5997.77,1313.73C5946.67,1338.88 5880.38,1351.47 5798.93,1351.47C5717.46,1351.47 5651.16,1338.88 5600.06,1313.73C5548.95,1288.55 5508.82,1254.84 5479.68,1212.5C5450.51,1170.16 5430.56,1121.26 5419.77,1065.75C5408.99,1010.25 5403.6,952.142 5403.6,891.446C5403.6,836.342 5408.99,782.43 5419.77,729.725C5430.56,677.009 5450.51,629.887 5479.68,588.363C5508.82,546.842 5549.15,513.479 5600.67,488.329C5652.19,463.184 5718.28,450.596 5798.93,450.596C5879.59,450.596 5945.68,463.184 5997.2,488.329C6048.71,513.479 6089.04,546.842 6118.18,588.363C6147.32,629.887 6167.49,677.009 6178.68,729.725C6189.86,782.43 6195.46,836.342 6195.46,891.446ZM4983.13,1333.48L4769.88,1333.48L4769.88,469.767L5378.45,469.767L5320.93,647.05L4983.13,647.05L4983.13,805.196L5286.2,805.196L5286.2,980.084L4978.31,980.084C4979.91,984.079 4981.11,987.863 4981.93,991.479C4982.71,995.067 4983.13,998.85 4983.13,1002.84L4983.13,1333.48ZM12013.9,1333.48L11455.7,1333.48L11455.7,469.767L11671.3,469.767L11671.3,1146.62L12013.9,1146.62L12013.9,1333.48ZM12694.4,1333.48L12136.1,1333.48L12136.1,469.767L12351.7,469.767L12351.7,1146.62L12694.4,1146.62L12694.4,1333.48ZM7767.17,1333.48L7139.45,1333.48L7139.45,469.767L7767.17,469.767L7767.17,647.05L7355.08,647.05L7355.08,795.604L7731.23,795.604L7676.13,974.112L7349.07,974.112C7350.68,978.1 7352.08,981.683 7353.27,984.892C7354.47,988.071 7355.08,992.058 7355.08,996.867L7355.08,1156.2L7767.17,1156.2L7767.17,1333.48ZM13444.3,1333.48L12816.6,1333.48L12816.6,469.767L13444.3,469.767L13444.3,647.05L13032.2,647.05L13032.2,795.604L13408.4,795.604L13353.2,974.112L13026.2,974.112C13027.8,978.1 13029.2,981.683 13030.4,984.892C13031.6,988.071 13032.2,992.058 13032.2,996.867L13032.2,1156.2L13444.3,1156.2L13444.3,1333.48ZM9117.27,1333.48L8900.45,1333.48L8900.45,645.863L8652.48,645.863L8652.48,469.767L9364.05,469.767L9364.05,645.863L9117.27,645.863L9117.27,1333.48ZM6539.27,1333.48L6323.64,1333.48L6323.64,469.767L6638.7,469.767C6757.7,469.767 6844.94,494.134 6900.45,542.85C6955.96,591.546 6983.71,658.646 6983.71,744.088C6983.71,865.484 6928.19,946.546 6817.2,987.287L7043.61,1333.48L6787.24,1333.48L6599.16,1045.97C6592.77,1036.38 6588.78,1026.01 6587.18,1014.82L6539.27,1014.82L6539.27,1333.48ZM14049.3,1333.48L13831.2,1333.48L13831.2,987.287L13521,469.767L13767.7,469.767L13925.9,766.846C13929.9,773.254 13932.5,780.042 13933.7,787.213C13934.9,794.409 13936.3,802.396 13937.9,811.192C13939.5,803.179 13940.9,795.604 13942.1,788.412C13943.2,781.242 13945.8,774.454 13949.8,768.067L14111.6,469.767L14358.3,469.767L14049.3,987.287L14049.3,1333.48ZM10261.3,1333.48L10060.1,1333.48L9735.4,469.767L9971.4,469.767L10148.7,983.7C10152.7,996.463 10155.1,1008.06 10155.9,1018.43C10156.7,1028.81 10157.9,1041.97 10159.5,1057.97C10161.1,1041.97 10162.7,1028.81 10164.3,1018.43C10165.9,1008.06 10168.7,996.463 10172.7,983.7L10350,469.767L10586,469.767L10261.3,1333.48ZM11362.2,1333.48L11135.8,1333.48L11070,1159.79L10783.6,1159.79L10717.7,1333.48L10502.1,1333.48L10836.3,469.767L11029.2,469.767L11362.2,1333.48ZM5975.02,891.446C5975.02,844.321 5972.02,804.204 5966.05,771.042C5960.04,737.912 5950.07,710.958 5936.09,690.175C5922.11,669.434 5903.95,654.254 5881.57,644.662C5859.22,635.075 5831.68,630.3 5798.93,630.3C5766.17,630.3 5738.64,634.875 5716.26,644.054C5693.92,653.263 5675.93,668.238 5662.36,688.988C5648.78,709.759 5639.19,736.713 5633.6,769.842C5628.03,803.009 5625.23,843.537 5625.23,891.446C5625.23,944.946 5628.2,989.675 5634.2,1025.6C5640.21,1061.56 5649.98,1090.49 5663.55,1112.47C5677.13,1134.44 5694.91,1150 5716.87,1159.17C5738.82,1168.38 5766.17,1172.96 5798.93,1172.96C5831.68,1172.96 5859.22,1168.18 5881.57,1158.59C5903.95,1149.01 5922.11,1133.24 5936.09,1111.27C5950.07,1089.3 5960.04,1060.36 5966.05,1024.4C5972.02,988.475 5975.02,944.162 5975.02,891.446ZM10937,800.412C10933,790.821 10929.8,778.442 10927.4,763.258C10925.8,769.646 10924,776.229 10922,783.017C10920,789.809 10918.2,795.604 10916.6,800.412L10848.3,986.088L11004.1,986.088L10937,800.412ZM6763.3,744.088C6763.3,713.75 6754.28,688.575 6736.33,668.617C6718.36,648.654 6685.81,638.659 6638.7,638.659L6539.27,638.659L6539.27,847.125L6638.7,847.125C6663.46,847.125 6683.83,844.529 6699.79,839.342C6715.77,834.129 6728.53,826.754 6738.12,817.163C6747.7,807.584 6754.28,796.596 6757.9,784.242C6761.49,771.858 6763.3,758.483 6763.3,744.088Z" style="fill:rgb(16,90,89);fill-rule:nonzero;"/>
        </g>
        <g transform="matrix(0.24,0,0,0.24,4494.61,-1341.98)">
            <path d="M9696.94,2065.67L9628.14,2065.67L9628.14,1686.37L9691.55,1686.37L9694.37,1714.22C9714.59,1692.28 9742.05,1681.29 9776.78,1681.29C9814.17,1681.29 9843.48,1693.77 9864.69,1718.65C9885.94,1743.56 9896.54,1778.12 9896.54,1822.32L9896.54,1826.14C9896.54,1868.51 9885.79,1902.31 9864.29,1927.55C9842.76,1952.78 9813.88,1965.4 9777.63,1965.4C9744.03,1965.4 9717.13,1955.52 9696.94,1935.76L9696.94,2065.67ZM5021.03,1768.65L4952.23,1768.65C4952.23,1756.85 4947.31,1747 4937.52,1739.16C4927.7,1731.33 4914.68,1727.39 4898.45,1727.39C4883.32,1727.39 4871.02,1730.5 4861.46,1736.74C4851.93,1743.01 4847.18,1751.37 4847.18,1761.83C4847.18,1771.28 4851.62,1778.62 4860.47,1783.87C4869.36,1789.08 4887.28,1794.35 4914.3,1799.68C4941.28,1804.99 4962.46,1811.31 4977.85,1818.65C4993.23,1826 5004.66,1834.83 5012.12,1845.14C5019.58,1855.43 5023.3,1867.92 5023.3,1882.61C5023.3,1907.23 5011.88,1927.2 4989.04,1942.5C4966.19,1957.76 4936.27,1965.4 4899.29,1965.4C4874.17,1965.4 4851.79,1961.35 4832.18,1953.24C4812.54,1945.15 4797.24,1933.99 4786.31,1919.82C4775.35,1905.63 4769.88,1890.37 4769.88,1873.99L4836.69,1873.99C4837.66,1888.5 4843.78,1899.68 4855.11,1907.53C4866.44,1915.4 4881.45,1919.3 4900.13,1919.3C4918.26,1919.3 4932.04,1916.24 4941.48,1910.06C4950.89,1903.91 4955.61,1895.85 4955.61,1885.88C4955.61,1874.92 4950.57,1866.55 4940.49,1860.81C4930.38,1855.08 4913.62,1850.01 4890.23,1845.63C4866.8,1841.24 4847.28,1835.67 4831.6,1828.91C4797.24,1814.08 4780.08,1792.55 4780.08,1764.36C4780.08,1740.73 4791.21,1720.98 4813.48,1705.1C4835.77,1689.25 4864.09,1681.29 4898.45,1681.29C4935.04,1681.29 4964.65,1689.42 4987.2,1705.62C5009.76,1721.83 5021.03,1742.83 5021.03,1768.65ZM9249.86,1820.81C9249.86,1793.98 9255.8,1769.79 9267.69,1748.28C9279.58,1726.75 9296.3,1710.23 9317.81,1698.65C9339.34,1687.09 9364.05,1681.29 9391.99,1681.29C9433.34,1681.29 9466.89,1693.21 9492.68,1717.02C9518.43,1740.79 9532.36,1772.38 9534.43,1811.72L9534.72,1826.14C9534.72,1853.16 9528.89,1877.28 9517.3,1898.55C9505.7,1919.82 9489.09,1936.28 9467.46,1947.92C9445.85,1959.57 9420.87,1965.4 9392.58,1965.4C9349.34,1965.4 9314.75,1952.52 9288.79,1926.79C9262.85,1901.03 9249.86,1866.74 9249.86,1823.87L9249.86,1820.81ZM5105.68,1820.81C5105.68,1793.98 5111.62,1769.79 5123.51,1748.28C5135.4,1726.75 5152.1,1710.23 5173.63,1698.65C5195.14,1687.09 5219.88,1681.29 5247.82,1681.29C5289.17,1681.29 5322.7,1693.21 5348.47,1717.02C5374.26,1740.79 5388.16,1772.38 5390.26,1811.72L5390.51,1826.14C5390.51,1853.16 5384.71,1877.28 5373.12,1898.55C5361.5,1919.82 5344.88,1936.28 5323.26,1947.92C5301.67,1959.57 5276.7,1965.4 5248.38,1965.4C5205.16,1965.4 5170.57,1952.52 5144.6,1926.79C5118.65,1901.03 5105.68,1866.74 5105.68,1823.87L5105.68,1820.81ZM8128.96,1842.84C8131.03,1865.48 8139.48,1883.37 8154.28,1896.51C8169.11,1909.68 8187.76,1916.27 8210.23,1916.27C8241.73,1916.27 8267.4,1904.87 8287.25,1882.09L8324.34,1913.74C8312.04,1930.11 8295.7,1942.82 8275.21,1951.85C8254.73,1960.88 8231.73,1965.4 8206.24,1965.4C8162.64,1965.4 8127.3,1953.13 8100.2,1928.56C8073.13,1904 8059.58,1871.28 8059.58,1830.45L8059.58,1822.85C8059.58,1795.49 8065.46,1771.07 8077.27,1749.54C8089.07,1728.03 8105.65,1711.28 8126.98,1699.27C8148.31,1687.29 8172.09,1681.29 8198.31,1681.29C8240.04,1681.29 8272.27,1693.21 8295.03,1717.02C8317.75,1740.79 8329.15,1774.48 8329.15,1818.04L8329.15,1842.84L8128.96,1842.84ZM7964.17,1960.33L7901.88,1960.33L7898.5,1931.98C7877.93,1954.27 7850.44,1965.4 7816.09,1965.4C7780.22,1965.4 7751.2,1952.49 7729.02,1926.65C7706.85,1900.83 7695.74,1865.71 7695.74,1821.33C7695.74,1779.11 7706.71,1745.25 7728.59,1719.67C7750.5,1694.08 7779.85,1681.29 7816.64,1681.29C7849.14,1681.29 7875.36,1691.43 7895.38,1711.68L7895.38,1571.4L7964.17,1571.4L7964.17,1960.33ZM8790.36,1842.84C8792.43,1865.48 8800.88,1883.37 8815.68,1896.51C8830.52,1909.68 8849.16,1916.27 8871.6,1916.27C8903.13,1916.27 8928.8,1904.87 8948.64,1882.09L8985.71,1913.74C8973.44,1930.11 8957.07,1942.82 8936.61,1951.85C8916.12,1960.88 8893.14,1965.4 8867.64,1965.4C8824.05,1965.4 8788.7,1953.13 8761.6,1928.56C8734.53,1904 8720.98,1871.28 8720.98,1830.45L8720.98,1822.85C8720.98,1795.49 8726.86,1771.07 8738.67,1749.54C8750.47,1728.03 8767.05,1711.28 8788.38,1699.27C8809.71,1687.29 8833.49,1681.29 8859.72,1681.29C8901.44,1681.29 8933.67,1693.21 8956.42,1717.02C8979.15,1740.79 8990.55,1774.48 8990.55,1818.04L8990.55,1842.84L8790.36,1842.84ZM11320.7,1686.37L11374.8,1686.37L11374.8,1731.93L11320.7,1731.93L11320.7,1884.88C11320.7,1895.35 11323,1902.89 11327.7,1907.53C11332.3,1912.19 11340.5,1914.5 11352.4,1914.5C11360.4,1914.5 11368.4,1913.65 11376.5,1911.96L11376.5,1959.57C11360.8,1963.44 11345.7,1965.4 11331.2,1965.4C11278.4,1965.4 11251.9,1939.32 11251.9,1887.15L11251.9,1731.93L11201.5,1731.93L11201.5,1686.37L11251.9,1686.37L11251.9,1619.78L11320.7,1619.78L11320.7,1686.37ZM10587.7,1842.84C10589.8,1865.48 10598.2,1883.37 10613,1896.51C10627.9,1909.68 10646.5,1916.27 10669,1916.27C10700.5,1916.27 10726.1,1904.87 10746,1882.09L10783.1,1913.74C10770.8,1930.11 10754.4,1942.82 10733.9,1951.85C10713.5,1960.88 10690.5,1965.4 10665,1965.4C10621.4,1965.4 10586,1953.13 10558.9,1928.56C10531.9,1904 10518.3,1871.28 10518.3,1830.45L10518.3,1822.85C10518.3,1795.49 10524.2,1771.07 10536,1749.54C10547.8,1728.03 10564.4,1711.28 10585.7,1699.27C10607,1687.29 10630.8,1681.29 10657,1681.29C10698.8,1681.29 10731,1693.21 10753.8,1717.02C10776.5,1740.79 10787.9,1774.48 10787.9,1818.04L10787.9,1842.84L10587.7,1842.84ZM5811.26,1686.37L5865.34,1686.37L5865.34,1731.93L5811.26,1731.93L5811.26,1884.88C5811.26,1895.35 5813.56,1902.89 5818.2,1907.53C5822.8,1912.19 5831.07,1914.5 5842.96,1914.5C5850.89,1914.5 5858.9,1913.65 5867.03,1911.96L5867.03,1959.57C5851.35,1963.44 5836.26,1965.4 5821.71,1965.4C5768.86,1965.4 5742.43,1939.32 5742.43,1887.15L5742.43,1731.93L5692.05,1731.93L5692.05,1686.37L5742.43,1686.37L5742.43,1619.78L5811.26,1619.78L5811.26,1686.37ZM7060.13,1842.84C7062.2,1865.48 7070.66,1883.37 7085.48,1896.51C7100.28,1909.68 7118.93,1916.27 7141.4,1916.27C7172.93,1916.27 7198.6,1904.87 7218.42,1882.09L7255.51,1913.74C7243.25,1930.11 7226.87,1942.82 7206.38,1951.85C7185.9,1960.88 7162.94,1965.4 7137.44,1965.4C7093.85,1965.4 7058.5,1953.13 7031.4,1928.56C7004.31,1904 6990.78,1871.28 6990.78,1830.45L6990.78,1822.85C6990.78,1795.49 6996.67,1771.07 7008.47,1749.54C7020.27,1728.03 7036.82,1711.28 7058.15,1699.27C7079.48,1687.29 7103.26,1681.29 7129.52,1681.29C7171.24,1681.29 7203.47,1693.21 7226.2,1717.02C7248.95,1740.79 7260.32,1774.48 7260.32,1818.04L7260.32,1842.84L7060.13,1842.84ZM6485.1,1765.35L6416.31,1765.35C6416.31,1750.36 6421.87,1736.3 6433,1723.22C6444.14,1710.14 6459.28,1699.88 6478.45,1692.45C6497.6,1685.02 6518.99,1681.29 6542.59,1681.29C6578.43,1681.29 6607.05,1689.36 6628.38,1705.48C6649.7,1721.62 6660.67,1744.26 6661.22,1773.46L6661.22,1897.03C6661.22,1921.69 6665.09,1941.33 6672.84,1956.02L6672.84,1960.33L6602.61,1960.33C6599.59,1955.11 6596.93,1946.58 6594.7,1934.78C6572.78,1955.17 6545.97,1965.4 6514.27,1965.4C6483.5,1965.4 6458.38,1957.56 6438.95,1941.85C6419.51,1926.15 6409.78,1906.74 6409.78,1883.6C6409.78,1854.4 6421.9,1832 6446.17,1816.38C6470.41,1800.76 6505.12,1792.95 6550.22,1792.95L6592.42,1792.95L6592.42,1775C6592.42,1760.81 6587.99,1749.45 6579.1,1740.94C6570.24,1732.4 6556.72,1728.14 6538.62,1728.14C6522.95,1728.14 6510.11,1731.65 6500.11,1738.67C6490.11,1745.66 6485.1,1754.58 6485.1,1765.35ZM10944.4,1960.33L10875.6,1960.33L10875.6,1686.37L10940.5,1686.37L10942.5,1718.01C10965.1,1693.53 10994.8,1681.29 11031.6,1681.29C11095.4,1681.29 11127.9,1713.95 11129,1779.29L11129,1960.33L11060.2,1960.33L11060.2,1782.84C11060.2,1765.45 11056,1752.59 11047.7,1744.23C11039.2,1735.87 11025.5,1731.7 11006.5,1731.7C10978.7,1731.7 10958,1742.92 10944.4,1765.35L10944.4,1960.33ZM6067.77,1960.33L6011.12,1960.33L5927.32,1686.37L5994.43,1686.37L6043.96,1873.49L6106.85,1686.37L6158.65,1686.37L6222.36,1875.5L6271.07,1686.37L6338.18,1686.37L6254.64,1960.33L6198.02,1960.33L6132.31,1772.2L6067.77,1960.33ZM8551.94,1960.33L8492.21,1960.33L8385.18,1686.37L8456.54,1686.37L8522.23,1882.35L8587.05,1686.37L8658.12,1686.37L8551.94,1960.33ZM5577.1,1960.33L5508.3,1960.33L5508.3,1731.93L5461.59,1731.93L5461.59,1686.37L5508.3,1686.37L5508.3,1661.3C5508.3,1630.91 5517.74,1607.45 5536.62,1590.9C5555.47,1574.38 5581.9,1566.1 5615.88,1566.1C5627.97,1566.1 5640.82,1567.62 5654.4,1570.65L5652.71,1618.76C5645.17,1617.42 5636.36,1616.75 5626.37,1616.75C5593.53,1616.75 5577.1,1631.84 5577.1,1662.05L5577.1,1686.37L5639.39,1686.37L5639.39,1731.93L5577.1,1731.93L5577.1,1960.33ZM10058.8,1960.33L9989.96,1960.33L9989.96,1686.37L10054.8,1686.37L10056.8,1714.98C10078.3,1692.53 10107.8,1681.29 10145.1,1681.29C10186.1,1681.29 10214.1,1695.31 10229.2,1723.34C10251.5,1695.31 10282.8,1681.29 10323.3,1681.29C10357,1681.29 10382.2,1689.65 10398.7,1706.38C10415.2,1723.08 10423.7,1747.73 10424,1780.3L10424,1960.33L10355.3,1960.33L10355.3,1782.08C10355.3,1764.68 10351,1751.96 10342.5,1743.85C10334,1735.75 10319.9,1731.7 10300.3,1731.7C10284.6,1731.7 10271.9,1735.46 10261.9,1742.95C10252,1750.47 10245.1,1760.32 10241.1,1772.47L10241.4,1960.33L10172.6,1960.33L10172.6,1780.04C10171.7,1747.82 10153.3,1731.7 10117.4,1731.7C10089.8,1731.7 10070.3,1741.72 10058.8,1761.83L10058.8,1960.33ZM6837.31,1960.33L6768.51,1960.33L6768.51,1686.37L6834.21,1686.37L6835.91,1717.02C6852.52,1693.21 6875.54,1681.29 6905,1681.29C6914.82,1681.29 6922.92,1682.48 6929.35,1684.85L6929.07,1742.58C6920.01,1741.23 6910.65,1740.56 6901.03,1740.56C6869.5,1740.56 6848.27,1751.37 6837.31,1772.96L6837.31,1960.33ZM9152.47,1960.33L9083.68,1960.33L9083.68,1571.4L9152.47,1571.4L9152.47,1960.33ZM5174.48,1826.14C5174.48,1854.32 5181.01,1876.41 5194.03,1892.34C5207.05,1908.32 5225.15,1916.27 5248.38,1916.27C5271.6,1916.27 5289.67,1908.17 5302.6,1891.97C5315.54,1875.76 5322.01,1852.05 5322.01,1820.81C5322.01,1793.12 5315.34,1771.19 5302.05,1754.98C5288.73,1738.78 5270.67,1730.68 5247.82,1730.68C5225.35,1730.68 5207.52,1738.67 5194.29,1754.61C5181.09,1770.54 5174.48,1794.41 5174.48,1826.14ZM9318.65,1826.14C9318.65,1854.32 9325.18,1876.41 9338.2,1892.34C9351.23,1908.32 9369.35,1916.27 9392.58,1916.27C9415.77,1916.27 9433.87,1908.17 9446.78,1891.97C9459.72,1875.76 9466.18,1852.05 9466.18,1820.81C9466.18,1793.12 9459.54,1771.19 9446.23,1754.98C9432.9,1738.78 9414.84,1730.68 9391.99,1730.68C9369.53,1730.68 9351.7,1738.67 9338.49,1754.61C9325.27,1770.54 9318.65,1794.41 9318.65,1826.14ZM9828.03,1820.81C9828.03,1793.48 9821.95,1771.76 9809.76,1755.74C9797.59,1739.72 9780.18,1731.7 9757.52,1731.7C9729.41,1731.7 9709.21,1742.08 9696.94,1762.82L9696.94,1884.36C9709.38,1905.63 9729.77,1916.27 9758.1,1916.27C9779.99,1916.27 9797.12,1908.38 9809.48,1892.61C9821.85,1876.81 9828.03,1852.89 9828.03,1820.81ZM6592.42,1831.7L6555.33,1831.7C6529.83,1831.7 6510.68,1835.67 6497.83,1843.59C6485.01,1851.55 6478.6,1862.77 6478.6,1877.28C6478.6,1889.11 6482.97,1898.52 6491.74,1905.52C6500.55,1912.51 6512.28,1916.04 6527,1916.04C6540.61,1916.04 6553.37,1913.07 6565.38,1907.15C6577.35,1901.26 6586.39,1893.31 6592.42,1883.37L6592.42,1831.7ZM7764.55,1826.63C7764.55,1854.5 7770.55,1876.24 7782.52,1891.85C7794.53,1907.47 7811.55,1915.25 7833.63,1915.25C7861.78,1915.25 7882.35,1904.03 7895.38,1881.6L7895.38,1764.6C7882.73,1742.66 7862.34,1731.7 7834.21,1731.7C7811.93,1731.7 7794.76,1739.57 7782.67,1755.36C7770.6,1771.15 7764.55,1794.91 7764.55,1826.63ZM10656.8,1730.68C10637.9,1730.68 10622.7,1736.59 10611,1748.4C10599.4,1760.23 10592,1776.66 10588.8,1797.79L10719.9,1797.79L10719.9,1793.21C10718.4,1772.62 10712.3,1757.05 10701.5,1746.5C10690.8,1735.96 10675.8,1730.68 10656.8,1730.68ZM8198.05,1730.68C8179.16,1730.68 8163.93,1736.59 8152.3,1748.4C8140.7,1760.23 8133.31,1776.66 8130.09,1797.79L8261.19,1797.79L8261.19,1793.21C8259.68,1772.62 8253.53,1757.05 8242.77,1746.5C8232.02,1735.96 8217.1,1730.68 8198.05,1730.68ZM8859.45,1730.68C8840.57,1730.68 8825.33,1736.59 8813.7,1748.4C8802.1,1760.23 8794.7,1776.66 8791.46,1797.79L8922.59,1797.79L8922.59,1793.21C8921.08,1772.62 8914.93,1757.05 8904.18,1746.5C8893.42,1735.96 8878.51,1730.68 8859.45,1730.68ZM7129.22,1730.68C7110.34,1730.68 7095.1,1736.59 7083.5,1748.4C7071.88,1760.23 7064.48,1776.66 7061.27,1797.79L7192.37,1797.79L7192.37,1793.21C7190.86,1772.62 7184.74,1757.05 7173.98,1746.5C7163.2,1735.96 7148.28,1730.68 7129.22,1730.68Z" style="fill:rgb(16,90,89);fill-rule:nonzero;"/>
        </g>
        <path d="M5389.56,-1341.98C5389.56,-1341.98 5106.9,-1341.98 4999.34,-1341.98C4974.44,-1341.98 4951.8,-1325.14 4941.41,-1298.87L4861.55,-1104.84C4861.55,-1104.84 5144.23,-1104.84 5251.79,-1104.84C5276.69,-1104.84 5299.32,-1121.68 5309.72,-1147.96L5389.56,-1341.98Z" style="fill:rgb(111,191,84);"/>
        <path d="M5131.83,-1044.05C5131.83,-1044.05 4970.41,-1044.05 4886.5,-1044.05C4857.41,-1044.05 4831.01,-1027 4819.05,-1000.48L4755.35,-847.908C4755.35,-847.908 4917.53,-847.908 5001.45,-847.908C5030.54,-847.908 5056.94,-864.957 5068.89,-891.472L5131.83,-1044.05Z" style="fill:rgb(0,72,56);"/>
        <path d="M4495.84,-1255.87C4495.84,-1255.87 4620.01,-1255.87 4703.93,-1255.87C4733.01,-1255.87 4759.41,-1238.82 4771.38,-1212.3L4834.56,-1059.72C4834.56,-1059.72 4710.14,-1059.72 4626.22,-1059.72C4597.14,-1059.72 4570.74,-1076.77 4558.78,-1103.29L4495.84,-1255.87Z" style="fill:rgb(0,111,61);"/>
    </g>
</svg>
