<svg width="90" height="48" viewBox="0 0 90 48" fill="none" xmlns="http://www.w3.org/2000/svg">
<path fill-rule="evenodd" clip-rule="evenodd" d="M43.3777 26.7987C43.4694 26.6419 43.5178 26.4639 43.5178 26.2827C43.5178 26.1015 43.4694 25.9234 43.3777 25.7667C42.93 25.001 42.2238 24.3838 41.5315 23.961V19.0215C42.3969 18.2901 43.088 17.2444 43.298 16.065C43.3304 15.8867 43.3146 15.7032 43.2522 15.533C43.1897 15.3628 43.083 15.2119 42.9427 15.0958C42.5227 14.7458 42.0454 14.4695 41.5315 14.2787V12.569C41.5312 11.0808 41.0421 9.63308 40.1381 8.44436C39.2342 7.25565 37.9644 6.39041 36.5204 5.97925C36.7375 5.03816 37.2192 4.17717 37.9096 3.49582C38.0776 3.33833 38.2121 3.14906 38.305 2.93922C38.3979 2.72938 38.4474 2.50322 38.4506 2.27411C38.4537 2.04499 38.4105 1.81758 38.3234 1.6053C38.2363 1.39302 38.1071 1.20019 37.9435 1.03821C37.7799 0.876222 37.5851 0.74837 37.3708 0.662208C37.1564 0.576046 36.9268 0.533322 36.6955 0.536562C36.4642 0.539802 36.2359 0.58894 36.024 0.681072C35.8122 0.773204 35.6212 0.90646 35.4623 1.07296C34.1864 2.33071 33.342 3.95388 33.0484 5.71296H11.9411C11.6472 3.95374 10.8024 2.33055 9.52613 1.07296C9.36767 0.904536 9.1766 0.769445 8.96429 0.675749C8.75198 0.582053 8.5228 0.531672 8.29041 0.527611C8.05802 0.523549 7.82718 0.565891 7.61167 0.652111C7.39616 0.73833 7.20039 0.866661 7.03604 1.02945C6.87169 1.19223 6.74212 1.38614 6.65507 1.5996C6.56803 1.81306 6.52528 2.04169 6.52938 2.27187C6.53348 2.50205 6.58434 2.72905 6.67894 2.93934C6.77354 3.14962 6.90993 3.33888 7.07997 3.49582C7.77027 4.17755 8.25153 5.03898 8.46805 5.98039C7.02413 6.39134 5.75436 7.25635 4.85039 8.44488C3.94642 9.6334 3.45731 11.0809 3.4569 12.569V14.2524C2.94402 14.4459 2.46715 14.7224 2.04574 15.0707C1.90582 15.1868 1.7993 15.3375 1.7369 15.5074C1.67451 15.6774 1.65846 15.8606 1.69036 16.0387C1.90011 17.2029 2.52746 18.2529 3.4569 18.9952V23.9347C2.70228 24.3575 2.05843 24.9747 1.61074 25.7404C1.51917 25.897 1.47095 26.0748 1.47095 26.2558C1.47095 26.4368 1.51917 26.6146 1.61074 26.7712C2.05843 27.537 2.70228 28.1552 3.4569 28.577V33.5175C2.52786 34.2602 1.90061 35.3101 1.69036 36.4741C1.65836 36.6523 1.67437 36.8358 1.73676 37.0059C1.79915 37.1761 1.90573 37.3269 2.04574 37.4432C2.53497 37.8478 3.09574 38.1495 3.69228 38.3415C4.08694 39.7996 4.95623 41.0879 6.16537 42.0068C7.37451 42.9257 8.85594 43.4237 10.38 43.4238H34.6084C36.1275 43.4239 37.6044 42.9293 38.8117 42.016C40.0189 41.1028 40.8895 39.8217 41.2892 38.3701C41.8937 38.178 42.4551 37.8722 42.9427 37.4695C43.083 37.3534 43.1897 37.2026 43.2522 37.0324C43.3146 36.8622 43.3304 36.6786 43.298 36.5004C43.088 35.321 42.3969 34.2752 41.5327 33.5438V28.6044C42.225 28.1815 42.93 27.5644 43.3788 26.7987" fill="#4D4D4D"/>
<path fill-rule="evenodd" clip-rule="evenodd" d="M34.6125 19.4262H10.3829C9.46487 19.4262 8.58441 19.7874 7.93525 20.4304C7.28608 21.0734 6.92139 21.9454 6.92139 22.8548V36.5679C6.92139 37.4772 7.28608 38.3493 7.93525 38.9923C8.58441 39.6352 9.46487 39.9965 10.3829 39.9965H17.306C17.4502 39.993 17.5933 39.9793 17.7329 39.9622C18.1491 39.9017 18.5524 39.7743 18.9272 39.585C19.4348 39.3336 19.9068 38.8925 20.201 38.4159C20.6695 37.6559 20.8933 36.761 21.0698 35.897C21.2198 35.1656 21.3387 34.5108 21.4783 33.6536H21.4772C21.5683 33.3108 21.9975 32.8125 22.4983 32.8125C22.9979 32.8125 23.4272 33.3108 23.5183 33.6536C23.6568 34.5108 23.7756 35.1668 23.9256 35.897C24.1022 36.761 24.326 37.6719 24.7945 38.4319C25.0887 38.9096 25.5606 39.3416 26.0683 39.593C26.4283 39.7713 26.861 39.9176 27.2614 39.9656C27.4022 39.9839 27.5441 39.993 27.6883 39.9965H34.6125C35.5306 39.9965 36.4111 39.6352 37.0602 38.9923C37.7094 38.3493 38.0741 37.4772 38.0741 36.5679V22.8536C38.0741 21.9443 37.7094 21.0722 37.0602 20.4293C36.4111 19.7863 35.5306 19.425 34.6125 19.425V19.4262ZM10.3829 27.5405C10.3828 27.2838 10.4338 27.0295 10.5329 26.7923C10.6321 26.5551 10.7774 26.3396 10.9606 26.158C11.1438 25.9764 11.3613 25.8324 11.6008 25.7341C11.8402 25.6358 12.0968 25.5851 12.356 25.585C12.6152 25.585 12.8718 25.6355 13.1113 25.7336C13.3508 25.8318 13.5684 25.9757 13.7518 26.1572C13.9351 26.3387 14.0805 26.5541 14.1798 26.7913C14.279 27.0284 14.3302 27.2826 14.3302 27.5393C14.3302 28.0576 14.1224 28.5547 13.7523 28.9212C13.3823 29.2877 12.8804 29.4936 12.3572 29.4936C11.8339 29.4936 11.332 29.2877 10.962 28.9212C10.592 28.5547 10.3841 28.0576 10.3841 27.5393L10.3829 27.5405ZM14.7098 36.5679C14.0213 36.5679 13.361 36.297 12.8741 35.8147C12.3872 35.3325 12.1137 34.6785 12.1137 33.9965C12.1137 33.3145 12.3872 32.6604 12.8741 32.1782C13.361 31.696 14.0213 31.425 14.7098 31.425C15.3984 31.425 16.0587 31.696 16.5456 32.1782C17.0325 32.6604 17.306 33.3145 17.306 33.9965C17.306 34.6785 17.0325 35.3325 16.5456 35.8147C16.0587 36.297 15.3984 36.5679 14.7098 36.5679ZM17.681 25.5393C17.3217 25.5393 16.9772 25.398 16.7231 25.1464C16.4691 24.8947 16.3264 24.5535 16.3264 24.1976C16.3264 23.8418 16.4691 23.5005 16.7231 23.2489C16.9772 22.9973 17.3217 22.8559 17.681 22.8559C18.0403 22.8559 18.3848 22.9973 18.6389 23.2489C18.8929 23.5005 19.0356 23.8418 19.0356 24.1976C19.0356 24.5535 18.8929 24.8947 18.6389 25.1464C18.3848 25.398 18.0403 25.5393 17.681 25.5393V25.5393ZM25.9599 24.1976C25.9545 24.0181 25.9855 23.8392 26.0512 23.6718C26.1169 23.5043 26.2158 23.3516 26.3421 23.2227C26.4684 23.0938 26.6195 22.9913 26.7865 22.9212C26.9536 22.8512 27.1331 22.8151 27.3144 22.815C27.4958 22.8149 27.6754 22.8509 27.8424 22.9208C28.0095 22.9907 28.1608 23.0931 28.2872 23.2219C28.4136 23.3507 28.5126 23.5033 28.5784 23.6707C28.6442 23.8381 28.6754 24.0169 28.6702 24.1965C28.6702 24.5526 28.5274 24.8942 28.2731 25.146C28.0189 25.3979 27.674 25.5393 27.3145 25.5393C26.9549 25.5393 26.61 25.3979 26.3558 25.146C26.1015 24.8942 25.9587 24.5526 25.9587 24.1965L25.9599 24.1976ZM30.2868 36.5679C29.9458 36.568 29.6082 36.5015 29.2932 36.3724C28.9782 36.2432 28.692 36.0539 28.4508 35.8151C28.2097 35.5764 28.0184 35.293 27.8879 34.981C27.7573 34.6691 27.6901 34.3347 27.69 33.997C27.69 33.6594 27.757 33.325 27.8874 33.013C28.0178 32.7009 28.209 32.4174 28.45 32.1786C28.6911 31.9398 28.9772 31.7503 29.2922 31.621C29.6071 31.4917 29.9447 31.4251 30.2856 31.425C30.9742 31.425 31.6345 31.696 32.1214 32.1782C32.6083 32.6604 32.8818 33.3145 32.8818 33.9965C32.8818 34.6785 32.6083 35.3325 32.1214 35.8147C31.6345 36.297 30.9742 36.5679 30.2856 36.5679H30.2868ZM32.6406 29.4936C32.3815 29.4936 32.1249 29.4431 31.8856 29.3449C31.6462 29.2466 31.4287 29.1027 31.2454 28.9212C31.0622 28.7397 30.9169 28.5243 30.8177 28.2872C30.7186 28.0501 30.6675 27.796 30.6675 27.5393C30.6675 27.2827 30.7186 27.0286 30.8177 26.7915C30.9169 26.5544 31.0622 26.3389 31.2454 26.1574C31.4287 25.976 31.6462 25.832 31.8856 25.7338C32.1249 25.6356 32.3815 25.585 32.6406 25.585C33.1639 25.585 33.6658 25.7909 34.0358 26.1574C34.4058 26.5239 34.6137 27.021 34.6137 27.5393C34.6137 28.0576 34.4058 28.5547 34.0358 28.9212C33.6658 29.2877 33.1639 29.4936 32.6406 29.4936V29.4936Z" fill="#B3B3B6"/>
<path fill-rule="evenodd" clip-rule="evenodd" d="M10.3848 9.14282C9.93018 9.14282 9.48006 9.2315 9.06008 9.40381C8.64011 9.57611 8.25851 9.82865 7.93708 10.147C7.61565 10.4654 7.36067 10.8434 7.18671 11.2593C7.01275 11.6753 6.92322 12.1211 6.92322 12.5714C6.92322 13.0216 7.01275 13.4675 7.18671 13.8835C7.36067 14.2994 7.61565 14.6774 7.93708 14.9958C8.25851 15.3141 8.64011 15.5667 9.06008 15.739C9.48006 15.9113 9.93018 16 10.3848 16C11.3028 16 12.1833 15.6387 12.8324 14.9958C13.4816 14.3528 13.8463 13.4807 13.8463 12.5714C13.8463 11.6621 13.4816 10.79 12.8324 10.147C12.1833 9.50405 11.3028 9.14282 10.3848 9.14282V9.14282ZM34.6132 9.14282C34.1586 9.14282 33.7085 9.2315 33.2885 9.40381C32.8686 9.57611 32.487 9.82865 32.1655 10.147C31.8441 10.4654 31.5891 10.8434 31.4152 11.2593C31.2412 11.6753 31.1517 12.1211 31.1517 12.5714C31.1517 13.0216 31.2412 13.4675 31.4152 13.8835C31.5891 14.2994 31.8441 14.6774 32.1655 14.9958C32.487 15.3141 32.8686 15.5667 33.2885 15.739C33.7085 15.9113 34.1586 16 34.6132 16C35.5313 16 36.4117 15.6387 37.0609 14.9958C37.7101 14.3528 38.0748 13.4807 38.0748 12.5714C38.0748 11.6621 37.7101 10.79 37.0609 10.147C36.4117 9.50405 35.5313 9.14282 34.6132 9.14282" fill="white"/>
<path fill-rule="evenodd" clip-rule="evenodd" d="M85.9717 25.5875C85.8035 25.4359 85.6067 25.3186 85.3927 25.2423C85.1787 25.1661 84.9516 25.1323 84.7245 25.1431C84.4973 25.1538 84.2745 25.2087 84.0687 25.3048C83.863 25.4009 83.6784 25.5362 83.5255 25.7029L80.0905 29.4492L76.6555 25.7029C76.3468 25.3665 75.9157 25.1653 75.4572 25.1437C74.9986 25.122 74.5502 25.2817 74.2105 25.5875C73.8709 25.8933 73.6677 26.3203 73.6459 26.7744C73.624 27.2286 73.7852 27.6728 74.094 28.0092L77.7517 31.9978L74.094 35.9886C73.9411 36.1552 73.8228 36.35 73.746 36.5619C73.6691 36.7737 73.6351 36.9985 73.6459 37.2234C73.6567 37.4483 73.7121 37.6688 73.809 37.8725C73.9059 38.0761 74.0423 38.2589 74.2105 38.4103C74.3787 38.5618 74.5754 38.6789 74.7893 38.7551C75.0032 38.8312 75.2301 38.8649 75.4572 38.8542C75.6842 38.8434 75.9069 38.7885 76.1125 38.6926C76.3181 38.5966 76.5026 38.4615 76.6555 38.2949L80.0905 34.5475L83.5267 38.2949C83.6792 38.4621 83.8637 38.5977 84.0693 38.694C84.275 38.7903 84.4979 38.8454 84.7252 38.856C84.9524 38.8666 85.1796 38.8326 85.3935 38.7559C85.6074 38.6792 85.8039 38.5614 85.9717 38.4092C86.3109 38.1032 86.5135 37.6764 86.5352 37.2226C86.5568 36.7687 86.3956 36.3249 86.0871 35.9886L82.4305 31.9989L86.0882 28.0092C86.2414 27.8427 86.3599 27.6479 86.437 27.4359C86.514 27.224 86.5482 26.9991 86.5375 26.7741C86.5268 26.5491 86.4714 26.3284 86.3745 26.1246C86.2776 25.9208 86.1411 25.7379 85.9728 25.5864L85.9717 25.5875ZM54.3459 25.1418H50.1921C49.733 25.1418 49.2928 25.3224 48.9682 25.6439C48.6437 25.9654 48.4613 26.4014 48.4613 26.8561V37.1418C48.4613 37.5964 48.6437 38.0325 48.9682 38.3539C49.2928 38.6754 49.733 38.856 50.1921 38.856H54.3459C55.4931 38.8548 56.593 38.4029 57.4042 37.5995C58.2154 36.796 58.6716 35.7066 58.6728 34.5703C58.6728 33.6058 58.3498 32.7155 57.8051 31.9989C58.3695 31.2583 58.6742 30.3554 58.6728 29.4275C58.6716 28.2912 58.2154 27.2018 57.4042 26.3984C56.593 25.5949 55.4931 25.143 54.3459 25.1418V25.1418ZM55.2113 34.5703C55.2113 35.0423 54.8225 35.4275 54.3459 35.4275H51.9228V33.7132H54.3459C54.8225 33.7132 55.2113 34.0983 55.2113 34.5703ZM51.9228 30.2846V28.5703H54.3459C54.5677 28.5817 54.7766 28.6769 54.9296 28.8364C55.0825 28.996 55.1678 29.2075 55.1678 29.4275C55.1678 29.6475 55.0825 29.859 54.9296 30.0185C54.7766 30.178 54.5677 30.2733 54.3459 30.2846H51.9228Z" fill="#4D4D4D"/>
<path fill-rule="evenodd" clip-rule="evenodd" d="M66.6344 25.1411C62.8175 25.1411 59.7113 28.2176 59.7113 31.9982C59.7113 35.7788 62.8175 38.8554 66.6344 38.8554C70.4513 38.8554 73.5575 35.7788 73.5575 31.9982C73.5575 28.2176 70.4513 25.1411 66.6344 25.1411ZM66.6344 35.4268C64.7259 35.4268 63.1729 33.8885 63.1729 31.9982C63.1729 30.1068 64.7259 28.5696 66.6344 28.5696C68.5429 28.5696 70.0959 30.1068 70.0959 31.9982C70.0959 33.8885 68.5429 35.4268 66.6344 35.4268ZM57.2882 9.25537H50.1921C49.733 9.25537 49.2928 9.43598 48.9682 9.75747C48.6437 10.079 48.4613 10.515 48.4613 10.9697V21.2554C48.4613 21.71 48.6437 22.1461 48.9682 22.4675C49.2928 22.789 49.733 22.9696 50.1921 22.9696C50.6511 22.9696 51.0913 22.789 51.4159 22.4675C51.7405 22.1461 51.9228 21.71 51.9228 21.2554V17.8268H56.4228C56.8819 17.8268 57.3221 17.6462 57.6467 17.3247C57.9713 17.0032 58.1536 16.5672 58.1536 16.1125C58.1536 15.6579 57.9713 15.2218 57.6467 14.9003C57.3221 14.5788 56.8819 14.3982 56.4228 14.3982H51.9228V12.6839H57.2882C57.7473 12.6839 58.1875 12.5033 58.5121 12.1818C58.8367 11.8603 59.019 11.4243 59.019 10.9697C59.019 10.515 58.8367 10.079 58.5121 9.75747C58.1875 9.43598 57.7473 9.25537 57.2882 9.25537V9.25537ZM66.6344 22.9696C68.2404 22.9678 69.7802 22.3351 70.9158 21.2103C72.0514 20.0855 72.6903 18.5604 72.6921 16.9697V10.9697C72.6921 10.515 72.5097 10.079 72.1852 9.75747C71.8606 9.43598 71.4203 9.25537 70.9613 9.25537C70.5023 9.25537 70.0621 9.43598 69.7375 9.75747C69.4129 10.079 69.2305 10.515 69.2305 10.9697V16.9697C69.2305 18.3868 68.0652 19.5411 66.6344 19.5411C65.2036 19.5411 64.0382 18.3868 64.0382 16.9697V10.9697C64.0382 10.515 63.8559 10.079 63.5313 9.75747C63.2067 9.43598 62.7665 9.25537 62.3075 9.25537C61.8484 9.25537 61.4082 9.43598 61.0836 9.75747C60.759 10.079 60.5767 10.515 60.5767 10.9697V16.9697C60.5785 18.5604 61.2173 20.0855 62.353 21.2103C63.4886 22.3351 65.0284 22.9678 66.6344 22.9696V22.9696ZM86.5383 21.2462V10.9697C86.5383 10.515 86.3559 10.079 86.0313 9.75747C85.7067 9.43598 85.2665 9.25537 84.8075 9.25537C84.3485 9.25537 83.9082 9.43598 83.5836 9.75747C83.2591 10.079 83.0767 10.515 83.0767 10.9697V16.5205L77.4898 9.88051C77.4898 9.87937 77.4898 9.87823 77.4875 9.87823L77.4829 9.87251L77.4529 9.83937C77.4263 9.8086 77.3986 9.77887 77.3698 9.75023L77.3075 9.69308C77.2879 9.67512 77.2679 9.65759 77.2475 9.64051C77.2221 9.61994 77.1944 9.60051 77.1679 9.58223L77.1125 9.54223C77.0849 9.52426 77.0568 9.50711 77.0282 9.4908L76.9659 9.45651C76.9394 9.44166 76.9117 9.42909 76.8852 9.41651L76.8113 9.38337C76.7859 9.37308 76.7605 9.36508 76.734 9.35594C76.7075 9.34566 76.6798 9.33537 76.6509 9.32851C76.6267 9.32051 76.599 9.3148 76.5736 9.30794C76.5448 9.30108 76.5171 9.29309 76.4882 9.28737L76.3971 9.27366L76.3221 9.26337C76.2772 9.25933 76.2322 9.25704 76.1871 9.25651L76.1536 9.25537H76.1513C76.0359 9.25537 75.9205 9.2668 75.8075 9.28966L75.7567 9.30223C75.7186 9.31137 75.6805 9.31937 75.6436 9.3308C75.6205 9.33766 75.5998 9.3468 75.5779 9.3548C75.5467 9.36509 75.5144 9.37537 75.4855 9.38908C75.459 9.39823 75.4359 9.41194 75.4117 9.42337C75.3852 9.4348 75.3575 9.44623 75.3309 9.46108L75.2271 9.5228L75.1856 9.54794C75.1385 9.57965 75.0931 9.6136 75.0494 9.64966L75.0459 9.65194L75.0021 9.69194C74.9755 9.7148 74.949 9.7388 74.9236 9.76394C74.9017 9.78566 74.8832 9.80851 74.8636 9.83023L74.8117 9.88737C74.7909 9.91251 74.7725 9.93994 74.7529 9.96508L74.7113 10.0222C74.694 10.0485 74.6779 10.0759 74.6629 10.1022L74.6248 10.1674C74.6109 10.1925 74.5994 10.2177 74.5867 10.2439L74.5521 10.3205C74.5417 10.3434 74.5348 10.3662 74.5255 10.3914L74.4956 10.4782L74.4771 10.5491C74.4689 10.5793 74.4616 10.6098 74.4552 10.6405L74.4436 10.7205C74.439 10.7491 74.4344 10.7777 74.4321 10.8051C74.4275 10.8428 74.4263 10.8817 74.4252 10.9194L74.4229 10.9697V21.2554C74.4229 21.71 74.6052 22.1461 74.9298 22.4675C75.2544 22.789 75.6946 22.9696 76.1536 22.9696C76.6127 22.9696 77.0529 22.789 77.3775 22.4675C77.7021 22.1461 77.8844 21.71 77.8844 21.2554V15.7045L83.4713 22.3445L83.4725 22.3479L83.4782 22.3525L83.4944 22.3708C83.5279 22.4096 83.5636 22.4462 83.5994 22.4816L83.6525 22.5296C83.679 22.5525 83.7056 22.5776 83.7344 22.5982L83.799 22.6462C83.8256 22.6668 83.8532 22.6839 83.8809 22.7022L83.9502 22.7434C83.9802 22.7605 84.0113 22.7765 84.0425 22.7914C84.0644 22.8016 84.0852 22.8131 84.1071 22.8222C84.144 22.8382 84.1798 22.8519 84.2167 22.8656L84.2721 22.8851C84.3159 22.8999 84.3598 22.9102 84.4048 22.9205L84.4452 22.9319C84.5045 22.945 84.5647 22.9545 84.6252 22.9605C84.7403 22.9722 84.8562 22.9722 84.9713 22.9605L85.0244 22.9548C85.0602 22.9502 85.0959 22.9456 85.1306 22.9388L85.1929 22.9251C85.2252 22.9182 85.2563 22.9102 85.2886 22.9011L85.3509 22.8828L85.4421 22.8496L85.5009 22.8256L85.5909 22.7834C85.6083 22.7731 85.6267 22.7651 85.6452 22.7559L85.7329 22.7022C85.7502 22.6919 85.7663 22.6828 85.7825 22.6714C85.8125 22.6508 85.8425 22.6279 85.8713 22.6051L85.9117 22.5754L85.9152 22.5719C85.9313 22.5605 85.944 22.5468 85.959 22.5331C85.9844 22.5102 86.0121 22.4862 86.0375 22.4611C86.0594 22.4405 86.0779 22.4165 86.0975 22.3948L86.1494 22.3376C86.1702 22.3125 86.1886 22.2851 86.2071 22.2599L86.2498 22.2028C86.2671 22.1765 86.2832 22.1491 86.2982 22.1228L86.3363 22.0576C86.3502 22.0325 86.3617 22.0074 86.3744 21.9811C86.398 21.9333 86.4184 21.8841 86.4356 21.8337L86.4656 21.7468L86.484 21.6759L86.5059 21.5845L86.5175 21.5045C86.5221 21.4771 86.5267 21.4474 86.529 21.4188C86.5336 21.3811 86.5348 21.3434 86.5359 21.3056L86.5383 21.2554V21.2462" fill="#4D4D4D"/>
</svg>
