<svg width="158" height="46" viewBox="0 0 158 46" fill="none" xmlns="http://www.w3.org/2000/svg">
  <path d="M71.16 7.84H77.604V19.756L82.5 7.84H88.8L83.4 21.016L89.052 37H82.5L78.288 24.112L77.604 25.264V37H71.16V7.84ZM94.5458 37.36C93.5378 37.36 92.6618 37.12 91.9178 36.64C91.1978 36.136 90.6458 35.5 90.2618 34.732C89.9018 33.94 89.7218 33.124 89.7218 32.284C89.7218 30.676 90.1298 29.356 90.9458 28.324C91.7618 27.292 92.7338 26.488 93.8618 25.912C95.0138 25.336 96.4898 24.736 98.2898 24.112V22.024C98.2898 21.424 98.1938 20.968 98.0018 20.656C97.8338 20.344 97.5218 20.188 97.0658 20.188C96.6098 20.188 96.2858 20.332 96.0938 20.62C95.9018 20.908 95.7938 21.316 95.7698 21.844L95.6258 23.356L90.1538 23.14C90.2498 20.644 90.9098 18.808 92.1338 17.632C93.3578 16.432 95.1818 15.832 97.6058 15.832C99.6458 15.832 101.206 16.408 102.286 17.56C103.366 18.688 103.906 20.2 103.906 22.096V31.816C103.906 33.928 104.026 35.656 104.266 37H99.0098C98.7938 35.392 98.6378 34.408 98.5418 34.048C98.2538 35.008 97.7738 35.8 97.1018 36.424C96.4298 37.048 95.5778 37.36 94.5458 37.36ZM96.6338 33.4C97.2338 33.4 97.7858 33.052 98.2898 32.356V26.668C97.2098 27.292 96.3938 27.952 95.8418 28.648C95.2898 29.32 95.0138 30.148 95.0138 31.132C95.0138 31.828 95.1578 32.38 95.4458 32.788C95.7338 33.196 96.1298 33.4 96.6338 33.4ZM106.383 8.596H112.287V12.664H106.383V8.596ZM106.419 16.192H112.287V37H106.419V16.192ZM121.354 37.216C119.818 37.216 118.63 37 117.79 36.568C116.95 36.112 116.362 35.464 116.026 34.624C115.69 33.784 115.522 32.692 115.522 31.348V20.044H113.506V16.192H115.522V9.856H121.462V16.192H124.414V20.044H121.462V30.772C121.462 31.348 121.618 31.78 121.93 32.068C122.266 32.332 122.722 32.464 123.298 32.464C123.778 32.464 124.306 32.416 124.882 32.32V36.928C123.73 37.12 122.554 37.216 121.354 37.216ZM133.441 37.36C131.161 37.36 129.385 36.76 128.113 35.56C126.841 34.336 126.205 32.62 126.205 30.412V22.78C126.205 20.572 126.841 18.868 128.113 17.668C129.385 16.444 131.161 15.832 133.441 15.832C135.745 15.832 137.473 16.42 138.625 17.596C139.777 18.772 140.353 20.5 140.353 22.78V26.956H132.001V30.952C132.001 32.44 132.481 33.184 133.441 33.184C134.449 33.184 134.953 32.512 134.953 31.168V28.972H140.353V30.988C140.353 33.076 139.741 34.66 138.517 35.74C137.317 36.82 135.625 37.36 133.441 37.36ZM134.953 24.22V22.132C134.953 21.364 134.809 20.824 134.521 20.512C134.257 20.176 133.885 20.008 133.405 20.008C132.949 20.008 132.601 20.188 132.361 20.548C132.121 20.908 132.001 21.544 132.001 22.456V24.22H134.953ZM142.547 16.192H148.415V18.28C150.047 16.648 151.715 15.832 153.419 15.832C154.667 15.832 155.615 16.288 156.263 17.2C156.935 18.088 157.271 19.252 157.271 20.692V37H151.439V21.52C151.439 20.992 151.343 20.608 151.151 20.368C150.983 20.104 150.683 19.972 150.251 19.972C149.771 19.972 149.159 20.224 148.415 20.728V37H142.547V16.192Z" fill="#000"/>
  <path d="M23 0L0 23C0 10.2973 10.2971 0 23 0Z" fill="#EC1C24"/>
  <path d="M23 46L46 23C46 35.7023 35.7024 46 23 46Z" fill="#EC1C24"/>
  <path d="M0 23L23 46C10.2971 46 0 35.7023 0 23Z" fill="#EC1C24"/>
  <path d="M23 0C35.7024 0 46 10.2973 46 23L23 0Z" fill="#EC1C24"/>
  <path d="M14.8685 14.8681L14.8681 31.1318C10.3771 26.6409 10.3774 19.3591 14.8685 14.8681Z" fill="#72F4B2"/>
  <path d="M31.132 14.8688C35.6223 19.3591 35.6226 26.6409 31.132 31.1318V14.8688Z" fill="#72F4B2"/>
  <path d="M14.8681 31.1318L31.1314 31.132C26.6407 35.6227 19.359 35.6227 14.8681 31.1318Z" fill="#72F4B2"/>
  <path d="M14.8685 14.8681C19.3593 10.3772 26.6405 10.3772 31.1314 14.8681L31.1321 14.8689L14.8685 14.8681Z" fill="#72F4B2"/>
  <path d="M27 23.5C27 21.0154 24.9849 19 22.5 19C20.0153 19 18 21.0154 18 23.5C18 25.9847 20.0153 28 22.5 28C24.9849 28 27 25.9847 27 23.5Z" fill="#9F57FC"/>
</svg>
