<?xml version="1.0" encoding="UTF-8"?>
<svg width="662px" height="200px" viewBox="0 0 662 200" version="1.1" xmlns="http://www.w3.org/2000/svg" xmlns:xlink="http://www.w3.org/1999/xlink">
    <!-- Generator: Sketch 53.2 (72643) - https://sketchapp.com -->
    <title>RTK_IT_logo_color</title>
    <desc>Created with Sketch.</desc>
    <g id="logo" stroke="none" stroke-width="1" fill="none" fill-rule="evenodd">
        <g id="Logo_RTK_IT_light-BG" transform="translate(-190.000000, -120.000000)">
            <g id="RTK_IT_logo_color" transform="translate(190.000000, 120.000000)">
                <path d="M91.7325217,192.063516 L13.3595159,192.063516 C7.67168696,192.063516 4.3648087,187.03707 4.3648087,182.605852 C4.3648087,179.960351 5.4230087,177.64553 7.14258551,175.925954 L41.3357043,141.732832 L91.7325217,192.063516 Z" id="Fill-10" fill="#FF4F12"></path>
                <path d="M13.3602145,192.063484 C7.40783478,192.063484 0.0665652174,187.301591 0.0665652174,177.910049 L0.0665652174,72.5529101 C0.0665652174,58.3333333 -0.660947826,48.2804232 9.52423768,38.1613681 L47.6194754,0 L115.278206,67.7909971 L7.14328406,175.925922 C5.42370725,177.645499 4.36550725,180.026455 4.36550725,182.60582 C4.36550725,187.037041 7.67238261,192.063484 13.3602145,192.063484 Z" id="Fill-11" fill="#7700FF"></path>
                <path d="M134.193133,164.814646 L139.153452,164.814646 L139.153452,184.854354 C139.418003,184.259116 140.34393,182.737942 140.34393,182.737942 L151.388904,164.814646 L156.61378,164.814646 L156.61378,192.129496 L151.653461,192.129496 L151.653461,171.957516 C151.38891,172.552754 150.462983,174.073928 150.462983,174.073928 L139.418009,192.063354 L134.193133,192.063354 L134.193133,164.814646 Z" id="Fill-12" fill="#000000"></path>
                <polygon id="Fill-13" fill="#000000" points="160.317594 172.751519 165.21178 172.751519 165.21178 179.960501 173.214414 179.960501 173.214414 172.751519 178.108591 172.751519 178.108591 192.063661 173.214414 192.063661 173.214414 184.259441 165.21178 184.259441 165.21178 192.063661 160.317594 192.063661"></polygon>
                <path d="M195.370223,192.460359 L195.370223,200.000043 L190.608333,200.000043 L190.608333,192.460359 C184.589814,191.732843 180.489272,188.029128 180.489272,182.407429 C180.489272,176.78573 184.589814,173.082038 190.608333,172.354522 L190.608333,164.814826 L195.370223,164.814826 L195.370223,172.354522 C201.388742,173.082038 205.489284,176.78573 205.489284,182.407429 C205.489284,188.029128 201.454881,191.732843 195.370223,192.460359 Z M190.608333,187.830725 L190.608333,176.984157 C187.433728,177.513258 185.449588,179.232823 185.449588,182.407429 C185.515728,185.582035 187.499867,187.301623 190.608333,187.830725 Z M200.528965,182.407429 C200.528965,179.232823 198.544829,177.513258 195.370223,176.984157 L195.370223,187.830725 C198.544829,187.301623 200.528965,185.582035 200.528965,182.407429 Z" id="Fill-14" fill="#000000"></path>
                <path d="M217.393881,192.592664 C212.102881,192.592664 206.811878,189.153496 206.811878,182.407464 C206.811878,175.595293 212.102881,172.222281 217.393881,172.222281 C222.684884,172.222281 227.975884,175.661432 227.975884,182.407464 C227.975884,189.219632 222.684884,192.592664 217.393881,192.592664 Z M223.015571,182.407464 C223.015571,178.836035 220.303916,176.785768 217.460003,176.785768 C214.61609,176.785768 211.904455,178.836035 211.904455,182.407464 C211.904455,185.97889 214.61609,188.029157 217.460003,188.029157 C220.303916,188.029157 223.015571,185.97889 223.015571,182.407464 Z" id="Fill-15" fill="#000000"></path>
                <path d="M235.449588,172.751304 L235.449588,175.52907 C236.7062,173.677217 239.219432,172.222191 242.129484,172.222191 C246.957525,172.222191 250.99191,175.992029 250.99191,182.407371 C250.99191,188.624301 246.825243,192.592574 241.666513,192.592574 C238.954875,192.592574 236.772336,191.402081 235.383446,189.682504 L235.383446,199.999968 L230.489272,199.999968 L230.489272,172.685165 L235.449588,172.685165 L235.449588,172.751304 Z M235.118901,182.407371 C235.118901,185.581977 237.433707,188.029064 240.608307,188.029064 C243.78291,188.029064 246.097736,185.581977 246.097736,182.407371 C246.097736,179.232768 243.78291,176.785678 240.608307,176.785678 C237.433707,176.785678 235.118901,179.232768 235.118901,182.407371 Z" id="Fill-16" fill="#000000"></path>
                <polygon id="Fill-17" fill="#000000" points="253.373386 172.751519 259.78871 172.751519 265.145852 186.30971 270.502994 172.751519 276.918339 172.751519 276.918339 192.063661 272.222571 192.063661 272.222571 179.82822 267.063835 192.063661 263.227867 192.063661 258.069151 179.82822 258.069151 192.063661 253.373386 192.063661"></polygon>
                <path d="M292.261968,189.021067 C290.873078,191.468157 288.558272,192.658632 285.780493,192.658632 C281.944513,192.658632 279.298997,190.277696 279.298997,186.64013 C279.298997,182.671875 282.275206,180.886159 286.177322,180.357061 L291.997423,179.563403 L291.997423,178.571339 C291.997423,176.719487 290.806945,175.66129 288.359855,175.66129 C286.243452,175.66129 284.986835,176.653345 284.986835,177.84382 C284.986835,177.976096 284.986838,178.240658 285.052977,178.372933 L280.423345,178.902026 C280.357206,178.571339 280.357203,178.174513 280.357203,177.909962 C280.357203,174.933771 283.333403,172.28827 288.425997,172.28827 C293.849278,172.28827 296.957742,174.60309 296.957742,179.298855 L296.957742,187.367626 C296.957742,189.484029 297.156151,190.806788 297.552977,192.129539 L292.658797,192.129539 C292.460386,191.269751 292.261968,190.211542 292.261968,189.021067 Z M291.997423,183.26711 L291.997423,182.93642 L287.301649,183.597797 C285.185246,183.928484 284.060913,184.722139 284.060913,186.309441 C284.060913,187.896742 285.317533,188.624255 286.838699,188.624255 C289.682614,188.624255 291.997423,187.036951 291.997423,183.26711 Z" id="Fill-18" fill="#000000"></path>
                <polygon id="Fill-19" fill="#000000" points="315.608359 192.063522 299.735336 192.063522 299.735336 172.751342 304.629513 172.751342 304.629513 187.63231 312.301481 187.63231 312.301481 172.751342 317.195658 172.751342 317.195658 187.63231 320.10571 187.63231 320.10571 196.627012 315.674481 196.627012 315.674481 192.063522"></polygon>
                <polygon id="Fill-20" fill="#000000" points="321.494281 172.751519 326.190035 172.751519 326.190035 185.516052 334.589464 172.751519 339.682029 172.751519 339.682029 192.063661 334.986293 192.063661 334.986293 179.299128 326.586843 192.063661 321.494281 192.063661"></polygon>
                <path d="M352.579145,192.592664 C347.288145,192.592664 341.997142,189.153496 341.997142,182.407464 C341.997142,175.595293 347.288145,172.222281 352.579145,172.222281 C357.870148,172.222281 363.161148,175.661432 363.161148,182.407464 C363.161148,189.219632 357.870148,192.592664 352.579145,192.592664 Z M358.200835,182.407464 C358.200835,178.836035 355.48922,176.785768 352.645307,176.785768 C349.801394,176.785768 347.089739,178.836035 347.089739,182.407464 C347.089739,185.97889 349.801394,188.029157 352.645307,188.029157 C355.48922,188.029157 358.200835,185.97889 358.200835,182.407464 Z" id="Fill-21" fill="#000000"></path>
                <polygon id="Fill-22" fill="#000000" points="365.476391 172.751519 370.370591 172.751519 370.370591 179.960501 378.373229 179.960501 378.373229 172.751519 383.267432 172.751519 383.267432 192.063661 378.373229 192.063661 378.373229 184.259441 370.370591 184.259441 370.370591 192.063661 365.476391 192.063661"></polygon>
                <polygon id="Fill-23" fill="#000000" points="386.50787 172.751519 391.402017 172.751519 391.402017 179.960501 399.470797 179.960501 399.470797 172.751519 404.364988 172.751519 404.364988 192.063661 399.470797 192.063661 399.470797 184.259441 391.46818 184.259441 391.46818 192.063661 386.573991 192.063661 386.573991 172.751519"></polygon>
                <path d="M407.539345,172.751519 L412.433504,172.751519 L412.433504,179.034583 L416.335641,179.034583 C420.832997,179.034583 424.007586,181.150974 424.007586,185.516052 C424.007586,189.881128 420.832997,191.997519 416.335641,191.997519 L407.539345,191.997519 L407.539345,172.751519 Z M416.004951,188.359957 C418.385907,188.359957 419.311832,187.169493 419.311832,185.582194 C419.311832,183.994893 418.385907,182.804409 416.004951,182.804409 L412.433504,182.804409 L412.433504,188.359957 L416.004951,188.359957 Z M431.018197,172.751519 L431.018197,192.063661 L426.123997,192.063661 L426.123997,172.751519 L431.018197,172.751519 Z" id="Fill-24" fill="#000000"></path>
                <path d="M443.386658,188.425986 C445.966026,188.425986 447.090339,187.301646 448.280817,185.780481 L452.182954,187.698467 C450.264962,191.005345 447.553304,192.592664 443.320496,192.592664 C437.963348,192.592664 433.399852,188.492119 433.399852,182.407464 C433.399852,176.25667 437.963365,172.222281 443.585064,172.222281 C449.140623,172.222281 453.042733,176.256678 453.042733,181.878371 L453.042733,183.597951 L438.161768,183.597951 C438.360183,186.508006 440.476603,188.425986 443.386658,188.425986 Z M438.161768,179.828101 L448.413101,179.828101 C447.950136,177.381012 446.098301,175.925988 443.386658,175.925988 C440.80729,175.925988 438.889284,177.645562 438.161768,179.828101 Z" id="Fill-25" fill="#000000"></path>
                <polygon id="Т" fill="#000000" fill-rule="nonzero" points="469.74 192 469.74 170.036 461.608 170.036 461.608 165.4 482.888 165.4 482.888 170.036 474.756 170.036 474.756 192"></polygon>
                <path d="M490.013272,188.425986 C492.592641,188.425986 493.716954,187.301646 494.907432,185.780481 L498.809568,187.698467 C496.891577,191.005345 494.179919,192.592664 489.94711,192.592664 C484.589962,192.592664 480.026467,188.492119 480.026467,182.407464 C480.026467,176.25667 484.58998,172.222281 490.211678,172.222281 C495.767238,172.222281 499.669348,176.256678 499.669348,181.878371 L499.669348,183.597951 L484.788383,183.597951 C485.052933,186.508006 487.169354,188.425986 490.013272,188.425986 Z M484.788383,179.828101 L495.039716,179.828101 C494.576751,177.381012 492.724916,175.925988 490.013272,175.925988 C487.500043,175.925988 485.515899,177.645562 484.788383,179.828101 Z" id="Fill-27" fill="#000000"></path>
                <polygon id="Fill-28" fill="#000000" points="511.7724 172.751519 517.460272 172.751519 511.441713 181.746206 518.253893 192.063661 512.499939 192.063661 508.531675 185.714455 504.497246 192.063661 498.875539 192.063661 505.952287 181.878487 499.735322 172.751519 505.357032 172.751519 508.597797 177.910235"></polygon>
                <polygon id="Fill-29" fill="#000000" points="519.378397 172.751519 524.272597 172.751519 524.272597 179.960501 532.275235 179.960501 532.275235 172.751519 537.169438 172.751519 537.169438 192.063661 532.275235 192.063661 532.275235 184.259441 524.272597 184.259441 524.272597 192.063661 519.378397 192.063661"></polygon>
                <path d="M550.132087,192.592664 C544.841078,192.592664 539.550072,189.153496 539.550072,182.407464 C539.550072,175.595293 544.841078,172.222281 550.132087,172.222281 C555.423093,172.222281 560.714101,175.661432 560.714101,182.407464 C560.647962,189.219632 555.423093,192.592664 550.132087,192.592664 Z M555.687661,182.407464 C555.687661,178.836035 552.976003,176.785768 550.132087,176.785768 C547.288171,176.785768 544.576554,178.836035 544.576554,182.407464 C544.576554,185.97889 547.288171,188.029157 550.132087,188.029157 C552.976003,188.029157 555.687661,185.97889 555.687661,182.407464 Z" id="Fill-30" fill="#000000"></path>
                <path d="M561.110875,192.063597 L561.110875,187.764655 C561.110875,187.764655 561.639959,188.0292 562.499745,188.0292 C563.69022,188.0292 564.285455,187.235548 564.48387,183.730255 L565.079122,172.751429 L580.29073,172.751429 L580.29073,192.063597 L575.396545,192.063597 L575.396545,177.182635 L569.378055,177.182635 L569.047368,183.862539 C568.782817,189.418099 567.195504,192.328145 562.830432,192.328145 C561.970646,192.328145 561.110875,192.063597 561.110875,192.063597 Z" id="Fill-31" fill="#000000"></path>
                <path d="M593.2544,192.592664 C587.963391,192.592664 582.672386,189.153496 582.672386,182.407464 C582.672386,175.595293 587.963391,172.222281 593.2544,172.222281 C598.545406,172.222281 603.836414,175.661432 603.836414,182.407464 C603.770275,189.219632 598.545406,192.592664 593.2544,192.592664 Z M598.809974,182.407464 C598.809974,178.836035 596.098316,176.785768 593.2544,176.785768 C590.410484,176.785768 587.698826,178.836035 587.698826,182.407464 C587.698826,185.97889 590.410484,188.029157 593.2544,188.029157 C596.098316,188.029157 598.809974,185.97889 598.809974,182.407464 Z" id="Fill-32" fill="#000000"></path>
                <polygon id="Fill-33" fill="#000000" points="606.150928 172.751519 619.378397 172.751519 619.378397 177.182722 611.045107 177.182722 611.045107 192.063661 606.150928 192.063661"></polygon>
                <polygon id="Fill-34" fill="#000000" points="621.693133 172.751519 626.38889 172.751519 626.38889 185.516052 634.788383 172.751519 639.880991 172.751519 639.880991 192.063661 635.185232 192.063661 635.185232 179.299128 626.785742 192.063661 621.693133 192.063661"></polygon>
                <polygon id="Fill-35" fill="#000000" points="642.989272 172.751519 647.685009 172.751519 647.685009 185.516052 656.084458 172.751519 661.177041 172.751519 661.177041 192.063661 656.481264 192.063661 656.481264 179.299128 648.081855 192.063661 642.989272 192.063661"></polygon>
                <polygon id="Fill-36" fill="#000000" points="462.102884 107.605954 450.793345 107.605954 437.235154 121.296426 437.235154 107.605954 427.645212 107.605954 427.645212 145.304362 437.235154 145.304362 437.235154 129.695904 450.991788 145.304362 462.565858 145.304362 444.774846 125.066275"></polygon>
                <path d="M158.399487,92.0634841 L134.193133,92.0634841 L134.193133,145.304223 L144.246052,145.304223 L144.246052,126.719574 L158.399487,126.719574 C170.436525,126.719574 178.306901,120.568771 178.306901,109.391525 C178.306901,98.2142754 170.370388,92.0634841 158.399487,92.0634841 Z M158.068797,117.791003 L144.246052,117.791003 L144.246052,101.058197 L158.068797,101.058197 C165.079383,101.058197 168.253983,104.431209 168.253983,109.391525 C168.253983,114.41798 165.079383,117.791003 158.068797,117.791003 Z" id="Fill-37" fill="#000000"></path>
                <path d="M200.991852,106.547568 C190.674391,106.547568 180.356942,113.227449 180.356942,126.454948 C180.356942,139.682446 190.608252,146.362336 200.991852,146.362336 C211.309313,146.362336 221.62678,139.682446 221.62678,126.454948 C221.560643,113.227449 211.309313,106.547568 200.991852,106.547568 Z M200.991852,137.433777 C195.370159,137.433777 190.145293,133.399386 190.145293,126.454948 C190.145293,119.510513 195.370159,115.47613 200.991852,115.47613 C206.613545,115.47613 211.838409,119.510513 211.838409,126.454948 C211.838409,133.399386 206.613545,137.433777 200.991852,137.433777 Z" id="Fill-38" fill="#000000"></path>
                <path d="M246.031925,137.433699 C240.277957,137.433699 235.979006,133.267026 235.979006,126.454858 C235.979006,119.774965 240.410232,115.476029 246.031925,115.476029 C249.471078,115.476029 252.447278,117.063322 254.762093,120.634751 L262.963148,115.938988 C260.251507,110.052745 254.299125,106.481313 246.098067,106.481313 C235.38378,106.481313 226.256794,114.417826 226.256794,126.388728 C226.256794,138.425762 234.920817,146.296128 246.098067,146.296128 C254.166849,146.296128 259.523997,142.658559 263.359977,136.177078 L255.42347,131.812006 C253.174791,135.118884 250.727693,137.433699 246.031925,137.433699 Z" id="Fill-39" fill="#000000"></path>
                <path d="M348.0158,128.968203 C347.552838,134.722168 346.428484,136.044916 344.444362,136.044916 C343.121612,136.044916 342.460261,135.912649 341.534336,135.648101 L341.600458,145.436446 C341.600458,145.436446 342.790916,145.767136 344.973452,145.767136 C353.108362,145.767136 356.15071,140.542275 356.944359,129.365032 L357.870261,116.203658 L368.650701,116.203658 L368.650701,145.238041 L378.240635,145.238041 L378.240635,107.605777 L349.669238,107.605777 L348.0158,128.968203 Z" id="Fill-40" fill="#000000"></path>
                <path d="M320.833441,106.547568 C309.854583,106.547568 300.99213,114.5502 300.99213,126.454948 C300.99213,138.425835 309.92071,146.362336 320.370467,146.362336 C328.637681,146.362336 333.928704,143.253875 337.698551,136.7724 L330.092716,133.002565 C327.711759,135.978754 325.595354,138.161284 320.502751,138.161284 C314.881046,138.161284 310.780504,134.523728 310.185267,128.703629 L339.285852,128.703629 L339.285852,125.330612 C339.285852,114.351788 331.68002,106.547568 320.833441,106.547568 Z M310.383672,121.428504 C311.772562,117.195704 315.542429,113.822693 320.568893,113.822693 C325.85991,113.822693 329.497475,116.732745 330.357264,121.428504 L310.383672,121.428504 Z" id="Fill-41" fill="#000000"></path>
                <path d="M403.439249,106.547568 C392.460423,106.547568 383.597997,114.5502 383.597997,126.454948 C383.597997,138.425835 392.526551,146.362336 402.976278,146.362336 C411.243464,146.362336 416.534475,143.253875 420.30431,136.7724 L412.698499,133.002565 C410.317551,135.978754 408.201151,138.161284 403.108559,138.161284 C397.486872,138.161284 393.386365,134.523728 392.791128,128.703629 L421.825467,128.703629 L421.825467,125.330612 C421.825467,114.351788 414.219661,106.547568 403.439249,106.547568 Z M392.923368,121.428504 C394.312255,117.195704 398.08211,113.822693 403.108559,113.822693 C408.399562,113.822693 412.037116,116.732745 412.896904,121.428504 L392.923368,121.428504 Z" id="Fill-42" fill="#000000"></path>
                <polygon id="Fill-43" fill="#000000" points="266.335484 115.93929 277.57887 115.93929 277.57887 145.304362 287.168817 145.304362 287.168817 115.93929 298.4122 115.93929 298.4122 107.605954 266.335484 107.605954"></polygon>
                <path d="M481.613446,106.547568 C471.296,106.547568 460.978545,113.227449 460.978545,126.454948 C460.978545,139.682446 471.229864,146.362336 481.613446,146.362336 C491.997032,146.362336 502.248351,139.682446 502.248351,126.454948 C502.182212,113.227449 491.930896,106.547568 481.613446,106.547568 Z M481.613446,137.433777 C475.991762,137.433777 470.766884,133.399386 470.766884,126.454948 C470.766884,119.510513 475.991762,115.47613 481.613446,115.47613 C487.235133,115.47613 492.459971,119.510513 492.459971,126.454948 C492.459971,133.399386 487.235133,137.433777 481.613446,137.433777 Z" id="Fill-44" fill="#000000"></path>
                <polygon id="Fill-45" fill="#000000" points="540.344087 107.605954 529.894357 133.994809 519.510748 107.605954 507.010728 107.605954 507.010728 145.238174 516.137745 145.238174 516.137745 121.42869 526.190626 145.238174 533.664206 145.238174 543.717084 121.42869 543.717084 145.238174 552.844104 145.238174 552.844104 107.605954"></polygon>
            </g>
        </g>
    </g>
</svg>