<svg width="76" height="24" viewBox="0 0 76 24" fill="none" xmlns="http://www.w3.org/2000/svg">
<rect width="75.3431" height="24" fill="white"/>
<path d="M68.6156 4.39553C68.3341 4.82321 68.2796 5.41869 68.2796 5.41869C68.2796 5.41869 71.6408 7.46198 71.9472 7.66161C72.2249 7.83965 72.2249 8.14952 71.9472 8.32604C71.6408 8.52226 68.2796 10.5674 68.2796 10.5674C68.2796 10.5674 68.3341 11.1641 68.6156 11.5936C68.8808 12.0005 69.3709 12.2395 69.3709 12.2395C69.3709 12.2395 74.7629 8.83023 75.119 8.52113C75.4178 8.25899 75.4178 7.7279 75.119 7.46577C74.7629 7.1559 69.3709 3.75042 69.3709 3.75042C69.3709 3.75042 68.8808 3.98983 68.6156 4.39629" fill="#DC6655"/>
<path d="M58.6672 0.000478439L55.9839 12.4564C56.9014 12.8475 58.5404 13.1161 59.872 13.1161C62.8967 13.1161 64.4995 11.9915 65.2898 8.26843C66.083 4.59625 65.0543 3.52809 62.5186 3.52809C61.4931 3.52809 60.5742 3.83024 60.0166 4.13398L60.8988 3.8293e-06H58.6675L58.6672 0.000478439ZM58.5401 11.0118L59.5478 6.32665C59.6568 5.79122 60.5558 5.47066 61.5475 5.47066C63.1124 5.47066 63.4912 6.0583 63.0049 8.30414C62.4457 10.8875 61.8346 11.2987 60.2497 11.2987C59.6754 11.2987 59.0081 11.2097 58.5401 11.0118ZM8.27858 1.10451C8.04625 2.15538 8.31619 2.33471 9.30565 2.33471C10.2775 2.33471 10.6188 2.15538 10.8535 1.10451C11.0514 0.161077 10.7821 0.0168234 9.81109 0.0168234C8.82084 0.0168234 8.47885 0.161077 8.27858 1.10451V1.10451ZM2.26742 2.26123L1.94305 3.79532H0.412762L0 5.72028H1.5287L0.647471 9.8176C0.0714125 12.5084 0.953433 13.1161 3.00519 13.1161C3.76247 13.1161 4.62148 12.984 5.28577 12.7998L5.68521 10.9346C5.20294 11.0667 4.48866 11.2092 3.95941 11.2092C2.88029 11.2092 2.68034 10.7458 2.91473 9.62288L3.76247 5.72028H6.79987L7.2147 3.79532H4.17412L4.69813 1.35446L2.26742 2.26123V2.26123ZM47.7031 8.28684C46.9121 12.0115 48.4786 13.1162 51.1248 13.1162C52.0598 13.1162 53.4457 12.9183 54.4183 12.616L54.4366 10.8688C53.6804 11.0819 52.4378 11.2447 51.7907 11.2447C50.1895 11.2447 49.5225 10.852 49.9175 8.90971H55.8399C56.9368 4.50707 55.8945 3.52824 52.9964 3.52824C50.3302 3.52824 48.4781 4.65021 47.7024 8.28684H47.7031ZM52.7419 5.27546C54.021 5.27546 54.4177 5.61301 54.147 7.21772H50.295C50.7636 5.72044 51.3403 5.27546 52.7419 5.27546V5.27546ZM24.9863 8.28684C24.194 12.0115 25.7601 13.1162 28.4065 13.1162C29.3423 13.1162 30.7276 12.9183 31.6994 12.616L31.7186 10.8688C30.9624 11.0819 29.7197 11.2447 29.0722 11.2447C27.471 11.2447 26.8042 10.852 27.2 8.90971H33.1224C34.2207 4.50707 33.1762 3.52824 30.2791 3.52824C27.6135 3.52824 25.7603 4.65021 24.9867 8.28684H24.9863ZM30.0268 5.27546C31.3043 5.27546 31.6997 5.61301 31.4304 7.21772H27.5777C28.0464 5.72044 28.6225 5.27546 30.0268 5.27546V5.27546ZM17.9994 4.13414C17.5498 3.72312 16.8127 3.52824 15.7856 3.52824C14.3283 3.52824 12.599 3.8842 11.3952 4.31219L9.5575 12.8661H11.7887L13.3204 5.73742C13.7884 5.613 14.4004 5.52414 14.8868 5.52414C16.3632 5.52414 16.6141 6.0226 16.1822 8.03531L15.1575 12.8661H17.3887L18.4686 7.80377C18.6489 6.98444 18.7033 6.30808 18.6489 5.77265C19.2794 5.59475 20.0349 5.52414 20.4844 5.52414C21.9624 5.52414 22.2124 6.0226 21.7814 8.03531L20.7551 12.8661H22.9879L24.0662 7.80377C24.7688 4.54388 23.9596 3.52824 21.3862 3.52824C20.3409 3.52824 19.0629 3.77676 18.0006 4.13414H17.9994ZM46.4798 3.79532C45.4536 6.05798 44.1924 8.3392 42.88 10.6019C42.88 8.65977 42.7167 5.55937 42.5004 3.79532H40.3227C39.5841 5.41829 37.8936 8.78545 36.8668 10.6019C36.7952 8.26859 36.5789 5.79026 36.2544 3.79532H33.8965C34.3653 6.57485 34.6883 9.70985 34.9044 12.8663H37.6581C38.5778 11.2279 39.8717 8.67834 40.7194 6.78829C40.8443 8.21352 40.9181 11.03 40.8981 12.8663H43.6708C45.4702 9.99549 47.2889 6.73465 48.7479 3.79532H46.4798V3.79532ZM7.86804 3.79532L5.92372 12.8663H8.15496L10.0978 3.79532H7.86661" fill="#4D3B3B"/>
<path d="M2.88376 19.7865H1.14816V20.5395H1.77298C2.23046 20.5395 2.59271 20.6507 2.85973 20.8732C3.12852 21.094 3.26292 21.3921 3.26292 21.7677C3.26292 22.1451 3.12941 22.4486 2.8624 22.6782C2.59716 22.9061 2.24381 23.0218 1.80235 23.0254H0.339111V19.1376H2.88376V19.7865ZM1.14816 21.1856V22.3819H1.78633C1.99104 22.3819 2.15392 22.3258 2.27496 22.2136C2.39779 22.1015 2.4592 21.9511 2.4592 21.7624C2.4592 21.5862 2.40046 21.4473 2.28297 21.3458C2.16727 21.2426 2.00795 21.1892 1.80502 21.1856H1.14816Z" fill="#4D3B3B"/>
<path d="M7.12097 21.1696C7.12097 21.5523 7.05333 21.8879 6.91804 22.1763C6.78276 22.4646 6.58873 22.6871 6.33595 22.8438C6.08496 23.0004 5.79658 23.0788 5.47083 23.0788C5.14863 23.0788 4.86114 23.0013 4.60837 22.8465C4.3556 22.6916 4.15979 22.4709 4.02094 22.1843C3.88209 21.8959 3.81178 21.5648 3.81 21.191V20.9987C3.81 20.616 3.87853 20.2796 4.0156 19.9894C4.15445 19.6975 4.34937 19.4741 4.60036 19.3192C4.85313 19.1626 5.14151 19.0842 5.46549 19.0842C5.78946 19.0842 6.07695 19.1626 6.32794 19.3192C6.58072 19.4741 6.77564 19.6975 6.9127 19.9894C7.05155 20.2796 7.12097 20.6151 7.12097 20.996V21.1696ZM6.30925 20.9934C6.30925 20.5857 6.23627 20.276 6.0903 20.0642C5.94433 19.8523 5.73606 19.7464 5.46549 19.7464C5.19669 19.7464 4.98931 19.8514 4.84334 20.0615C4.69738 20.2698 4.6235 20.5759 4.62172 20.98V21.1696C4.62172 21.5666 4.69471 21.8745 4.84067 22.0935C4.98664 22.3124 5.19669 22.4219 5.47083 22.4219C5.73962 22.4219 5.94611 22.3169 6.0903 22.1068C6.23449 21.895 6.30747 21.587 6.30925 21.183V20.9934Z" fill="#4D3B3B"/>
<path d="M10.931 19.1376V23.0254H10.1273V19.7865H9.09124L9.02716 21.1589C9.00046 21.6218 8.94171 21.9867 8.85093 22.2537C8.76014 22.5189 8.62753 22.7138 8.45308 22.8384C8.27863 22.9613 8.0401 23.0236 7.73748 23.0254H7.52921V22.3819L7.66272 22.3685C7.86387 22.3418 8.00716 22.2261 8.09261 22.0214C8.17983 21.8149 8.23502 21.4482 8.25816 20.9213L8.32491 19.1376H10.931Z" fill="#4D3B3B"/>
<path d="M12.5835 20.5395H13.2083C13.6658 20.5395 14.028 20.6507 14.2951 20.8732C14.5638 21.094 14.6982 21.3921 14.6982 21.7677C14.6982 22.1451 14.5647 22.4486 14.2977 22.6782C14.0325 22.9061 13.6791 23.0218 13.2377 23.0254H11.7771V19.1376H12.5835V20.5395ZM12.5835 21.1856V22.3819H13.2217C13.4264 22.3819 13.5892 22.3258 13.7103 22.2136C13.8331 22.1015 13.8945 21.9511 13.8945 21.7624C13.8945 21.5862 13.8358 21.4473 13.7183 21.3458C13.6026 21.2426 13.4433 21.1892 13.2403 21.1856H12.5835Z" fill="#4D3B3B"/>
<path d="M16.1558 19.1376V22.3819H17.2346V19.1376H18.0383V22.3819H19.1064V19.1376H19.9074V23.0254H15.3521V19.1376H16.1558Z" fill="#4D3B3B"/>
<path d="M23.0926 21.3405H21.5546V22.3819H23.3596V23.0254H20.7535V19.1376H23.3542V19.7865H21.5546V20.713H23.0926V21.3405Z" fill="#4D3B3B"/>
<path d="M24.131 24L23.7278 23.789L23.8239 23.6155C23.9432 23.3983 24.0046 23.182 24.0081 22.9666V22.3685H24.6597L24.657 22.9025C24.6552 23.1001 24.6054 23.2995 24.5075 23.5006C24.4095 23.7018 24.2841 23.8682 24.131 24Z" fill="#4D3B3B"/>
<path d="M30.0848 19.1376V23.0254H29.2811V21.5514C29.0372 21.6031 28.7826 21.6289 28.5174 21.6289C28.0243 21.6289 27.6496 21.5212 27.3933 21.3058C27.1387 21.0904 27.0079 20.7789 27.0008 20.3712V19.1376H27.8045V20.3552C27.8063 20.5777 27.8597 20.7379 27.9647 20.8358C28.0715 20.9337 28.2557 20.9827 28.5174 20.9827C28.7826 20.9827 29.0372 20.9569 29.2811 20.9053V19.1376H30.0848Z" fill="#4D3B3B"/>
<path d="M33.2753 21.3405H31.7373V22.3819H33.5423V23.0254H30.9363V19.1376H33.537V19.7865H31.7373V20.713H33.2753V21.3405Z" fill="#4D3B3B"/>
<path d="M35.2109 19.1376L36.2095 21.9573L37.2028 19.1376H38.2548V23.0254H37.4511V21.9626L37.5312 20.1283L36.4819 23.0254H35.9318L34.8851 20.1309L34.9652 21.9626V23.0254H34.1642V19.1376H35.2109Z" fill="#4D3B3B"/>
<path d="M42.0111 20.478L42.7401 19.1376H43.6613L42.5291 21.0655L43.6906 23.0254H42.7588L42.0111 21.6636L41.2635 23.0254H40.3316L41.4931 21.0655L40.361 19.1376H41.2822L42.0111 20.478Z" fill="#4D3B3B"/>
<path d="M47.3725 21.1696C47.3725 21.5523 47.3048 21.8879 47.1695 22.1763C47.0343 22.4646 46.8402 22.6871 46.5874 22.8438C46.3365 23.0004 46.0481 23.0788 45.7223 23.0788C45.4001 23.0788 45.1126 23.0013 44.8599 22.8465C44.6071 22.6916 44.4113 22.4709 44.2724 22.1843C44.1336 21.8959 44.0633 21.5648 44.0615 21.191V20.9987C44.0615 20.616 44.13 20.2796 44.2671 19.9894C44.4059 19.6975 44.6009 19.4741 44.8519 19.3192C45.1046 19.1626 45.393 19.0842 45.717 19.0842C46.041 19.0842 46.3284 19.1626 46.5794 19.3192C46.8322 19.4741 47.0271 19.6975 47.1642 19.9894C47.303 20.2796 47.3725 20.6151 47.3725 20.996V21.1696ZM46.5607 20.9934C46.5607 20.5857 46.4878 20.276 46.3418 20.0642C46.1958 19.8523 45.9876 19.7464 45.717 19.7464C45.4482 19.7464 45.2408 19.8514 45.0948 20.0615C44.9489 20.2698 44.875 20.5759 44.8732 20.98V21.1696C44.8732 21.5666 44.9462 21.8745 45.0922 22.0935C45.2381 22.3124 45.4482 22.4219 45.7223 22.4219C45.9911 22.4219 46.1976 22.3169 46.3418 22.1068C46.486 21.895 46.559 21.587 46.5607 21.183V20.9934Z" fill="#4D3B3B"/>
<path d="M51.1584 21.7303C51.1282 22.1487 50.9733 22.478 50.6938 22.7183C50.4161 22.9586 50.0494 23.0788 49.5937 23.0788C49.0953 23.0788 48.7028 22.9114 48.4162 22.5768C48.1314 22.2403 47.989 21.7793 47.989 21.1936V20.956C47.989 20.5822 48.0548 20.2529 48.1866 19.968C48.3183 19.6832 48.5061 19.4652 48.75 19.3139C48.9956 19.1608 49.2804 19.0842 49.6044 19.0842C50.053 19.0842 50.4144 19.2044 50.6885 19.4447C50.9626 19.685 51.1211 20.0223 51.1638 20.4567H50.3627C50.3432 20.2057 50.2728 20.0241 50.1518 19.912C50.0325 19.798 49.8501 19.7411 49.6044 19.7411C49.3374 19.7411 49.1371 19.8372 49.0036 20.0295C48.8719 20.2199 48.8043 20.5163 48.8007 20.9186V21.2123C48.8007 21.6324 48.8639 21.9395 48.9903 22.1335C49.1184 22.3276 49.3196 22.4246 49.5937 22.4246C49.8412 22.4246 50.0254 22.3685 50.1465 22.2564C50.2693 22.1424 50.3396 21.9671 50.3574 21.7303H51.1584Z" fill="#4D3B3B"/>
<path d="M54.6827 19.7865H53.4918V23.0254H52.6908V19.7865H51.5159V19.1376H54.6827V19.7865Z" fill="#4D3B3B"/>
<path d="M57.6249 19.1376H58.4286V23.0254H57.6249V20.4433L56.0682 23.0254H55.2672V19.1376H56.0682V21.725L57.6249 19.1376Z" fill="#4D3B3B"/>
<path d="M62.4389 23.0254H61.6379V21.3592H60.0758V23.0254H59.2748V19.1376H60.0758V20.713H61.6379V19.1376H62.4389V23.0254Z" fill="#4D3B3B"/>
<path d="M65.843 19.7865H64.0994V23.0254H63.2984V19.1376H65.843V19.7865Z" fill="#4D3B3B"/>
</svg>
